<svg width="105" height="105" viewBox="0 0 105 105" fill="none" xmlns="http://www.w3.org/2000/svg">
<path d="M105 97.3977L6.4 0L0 6.26939L23.6 29.5698C20.8917 34.549 19.4664 40.1099 19.45 45.7616V75.3808L9.45 85.2539V90.1904H85L98.65 103.667L105 97.3977ZM29.45 80.3174V45.7616C29.45 42.7504 30 39.7884 31.15 37.024L75 80.3174H29.45ZM44.45 95.1269H64.45C64.45 97.7454 63.3964 100.257 61.5211 102.108C59.6457 103.96 57.1022 105 54.45 105C51.7978 105 49.2543 103.96 47.3789 102.108C45.5036 100.257 44.45 97.7454 44.45 95.1269ZM35.9 16.5867C38.55 14.9083 41.45 13.6742 44.45 12.6375V11.2059C44.45 8.58743 45.5036 6.07617 47.3789 4.22462C49.2543 2.37306 51.7978 1.33286 54.45 1.33286C57.1022 1.33286 59.6457 2.37306 61.5211 4.22462C63.3964 6.07617 64.45 8.58743 64.45 11.2059V12.6375C79.3 16.9817 89.45 30.4584 89.45 45.7616V69.457L79.45 59.5839V45.7616C79.45 39.2154 76.8161 32.9373 72.1277 28.3084C67.4393 23.6795 61.0804 21.079 54.45 21.079C50.55 21.079 46.7 22.0663 43.25 23.8434L35.9 16.5867Z" fill="#0C3B5B"/>
</svg>
