<svg width="221" height="192" viewBox="0 0 221 192" fill="none" xmlns="http://www.w3.org/2000/svg">
<path d="M142.479 117.693C142.479 117.693 158.857 121.96 172.969 141.735C172.969 141.735 180.46 139.955 181.681 142.442C182.902 144.929 175.059 145.65 175.059 145.65C175.059 145.65 165.494 165.936 148.571 167.889C148.571 167.889 147.519 174.651 145.952 174.824C144.384 174.997 142.471 168.242 142.471 168.242C142.471 168.242 122.046 164.057 115.248 152.186C115.277 152.164 126.1 118.932 142.479 117.693Z" fill="white"/>
<path d="M162.926 142.998C162.926 142.998 154.604 142.201 141.125 152.54" stroke="#263238" stroke-linecap="round" stroke-linejoin="round"/>
<path d="M159.232 138.144C159.232 138.144 152.728 138.617 149.498 143.779" stroke="#263238" stroke-linecap="round" stroke-linejoin="round"/>
<path d="M142.479 117.693C142.479 117.693 158.857 121.96 172.969 141.735C172.969 141.735 180.46 139.955 181.681 142.442C182.902 144.929 175.059 145.65 175.059 145.65C175.059 145.65 165.494 165.936 148.571 167.889C148.571 167.889 147.519 174.651 145.952 174.824C144.384 174.997 142.471 168.242 142.471 168.242C142.471 168.242 122.046 164.057 115.248 152.186C115.277 152.164 126.1 118.932 142.479 117.693Z" stroke="#263238" stroke-linecap="round" stroke-linejoin="round"/>
<path d="M63.8978 189.858C55.8779 189.272 48.1007 187.409 41.155 183.555C24.6956 174.426 15.7927 155.853 12.9599 137.543C10.1787 119.511 8.00815 98.6314 3.17409 84.4988C-3.02852 66.3616 0.437014 47.5407 18.4341 37.4052C30.6701 30.5155 45.5623 29.2758 59.1226 32.7319C72.4255 36.128 88.4287 44.7533 96.537 56.3013C106.102 69.9981 111.988 85.3403 123.518 97.8876C135.96 111.412 151.043 123.35 148.88 144.065C146.356 168.31 121.789 181.18 100.937 185.944C89.4146 188.573 76.3546 190.737 63.8978 189.858Z" fill="#0C3B5B"/>
<path d="M64.0883 190.324C56.061 189.738 48.2911 187.875 41.3454 184.02C24.886 174.892 15.9831 156.319 13.1504 138.009C10.3691 119.977 8.1986 99.0972 3.36454 84.9571C-2.83806 66.8274 0.627444 48.0065 18.6246 37.8711C30.8606 30.9813 45.7527 29.7416 59.3131 33.1978C72.616 36.5938 88.6191 45.2191 96.7274 56.7671C106.292 70.4639 112.179 85.8061 123.708 98.3534C136.15 111.877 151.234 123.816 149.071 144.53C146.547 168.776 121.979 181.646 101.127 186.41C89.6051 189.039 76.5303 191.226 64.0883 190.324Z" stroke="#263238" stroke-linecap="round" stroke-linejoin="round"/>
<path d="M27.0422 73.071C24.3548 70.3508 21.3955 67.9258 18.2129 65.8357" stroke="#263238" stroke-linecap="round" stroke-linejoin="round"/>
<path d="M39.374 65.8357C39.374 65.8357 37.667 56.5492 31.847 51.5603" stroke="#263238" stroke-linecap="round" stroke-linejoin="round"/>
<path opacity="0.1" d="M45.6283 54.5281C40.5368 48.7353 31.8399 40.2528 25.7623 43.9644C23.2165 50.1178 30.6111 56.5041 29.5884 63.1008C29.2499 65.2647 28.0359 67.1655 26.9617 69.0589C23.2958 75.5893 20.9987 82.8263 20.2159 90.311C19.4332 97.7957 20.1819 105.365 22.4146 112.539C23.8052 116.926 25.7623 121.156 26.4393 125.709C27.3369 131.758 26.4393 137.535 29.3014 143.133C32.0753 148.55 36.5856 152.9 41.2652 156.589C57.0697 169.152 75.4347 175.515 95.1609 177.461C102.076 178.136 109.053 177.327 115.645 175.087C117.293 174.524 119 173.817 120.06 172.435C122.076 169.88 121.2 165.868 119 163.479C116.8 161.09 113.651 159.918 110.62 158.828C103.218 156.176 95.6612 153.449 88.8626 149.414C82.064 145.379 75.832 139.797 72.2267 132.607C68.3418 124.853 67.7311 115.874 67.3926 107.174C66.8629 93.7477 66.804 80.1636 69.7104 67.0679C70.7552 62.3269 70.6227 53.5439 66.0315 50.2155C61.1312 46.6091 50.0872 51.951 45.6283 54.5281Z" fill="black"/>
<path d="M27.8887 99.0747C27.8887 99.0747 26.9322 91.7116 25.1442 91.9971C23.3563 92.2826 21.8332 99.0747 21.8332 99.0747C21.8332 99.0747 4.17458 119.06 8.8247 138.106C8.8247 138.106 5.01336 143.14 5.50633 143.794C6.83073 145.552 11.7016 143.794 11.7016 143.794C11.7016 143.794 30.4051 158.956 46.9453 160.534C46.9453 160.534 49.4764 165.793 51.0951 165.508C52.7138 165.222 51.0951 156.92 51.0951 156.92C51.0951 156.92 62.6616 139.294 59.3726 121.84C59.3726 121.84 63.6843 118.955 62.4408 117.144C61.1974 115.334 56.6282 116.288 56.6282 116.288C56.6282 116.288 45.849 102.448 27.8887 99.0747Z" fill="white"/>
<path d="M44.0386 123.418C44.0386 123.418 34.8634 121.615 24.2903 135.296" stroke="#263238" stroke-linecap="round" stroke-linejoin="round"/>
<path d="M31.5234 122.366C27.4178 122.967 21.7891 125.131 16.2046 131.54" stroke="#263238" stroke-linecap="round" stroke-linejoin="round"/>
<path d="M27.8887 99.0747C27.8887 99.0747 26.9322 91.7116 25.1442 91.9971C23.3563 92.2826 21.8332 99.0747 21.8332 99.0747C21.8332 99.0747 4.17458 119.06 8.8247 138.106C8.8247 138.106 5.01336 143.14 5.50633 143.794C6.83073 145.552 11.7016 143.794 11.7016 143.794C11.7016 143.794 30.4051 158.956 46.9453 160.534C46.9453 160.534 49.4764 165.793 51.0951 165.508C52.7138 165.222 51.0951 156.92 51.0951 156.92C51.0951 156.92 62.6616 139.294 59.3726 121.84C59.3726 121.84 63.6843 118.955 62.4408 117.144C61.1974 115.334 56.6282 116.288 56.6282 116.288C56.6282 116.288 45.849 102.448 27.8887 99.0747Z" stroke="#263238" stroke-linecap="round" stroke-linejoin="round"/>
<path d="M53.1178 132.817C47.6767 120.343 43.1012 107.493 39.425 94.3638C33.2298 72.3197 32.207 65.6403 32.207 65.6403C32.207 65.6403 44.4136 57 53.0663 54.205C61.719 51.4101 85.4773 52.8 89.6198 53.3786C93.7622 53.9571 92.0478 57.4283 92.0478 57.4283L87.096 75.8359L85.8158 79.5325L85.6539 119.008C85.6539 119.008 78.6714 136.003 53.1178 132.817Z" fill="#0C3B5B"/>
<path opacity="0.3" d="M53.1183 132.817C47.6772 120.343 43.1016 107.493 39.4254 94.3638C33.2302 72.3197 32.4723 65.2271 32.4723 65.2271C32.4723 65.2271 44.414 56.9624 53.0741 54.205C61.7342 51.4477 85.4851 52.8 89.6276 53.3786C93.77 53.9571 92.0556 57.4283 92.0556 57.4283L87.1038 75.8359L85.8236 79.5325L85.6617 119.008C85.6617 119.008 78.6718 136.003 53.1183 132.817Z" fill="black"/>
<path d="M180.349 185.275C184.644 187.018 189.105 188.302 193.659 189.107C197.828 190.017 202.163 189.707 206.167 188.213C209.602 186.692 212.604 184.309 214.894 181.286C217.101 178.528 219.088 175.868 219.978 172.352C220.201 171.711 220.219 171.014 220.029 170.361C218.617 166.605 208.809 174.216 206.962 175.245C200.027 179.073 191.989 180.274 184.271 178.633C183.741 180.902 181.423 183.224 180.349 185.275Z" fill="white"/>
<path d="M180.349 185.275C184.644 187.018 189.105 188.302 193.659 189.107C197.828 190.017 202.163 189.707 206.167 188.213C209.602 186.692 212.604 184.309 214.894 181.286C217.101 178.528 219.088 175.868 219.978 172.352C220.201 171.711 220.219 171.014 220.029 170.361C218.617 166.605 208.809 174.216 206.962 175.245C200.027 179.073 191.989 180.274 184.271 178.633C183.741 180.902 181.423 183.224 180.349 185.275Z" stroke="#263238" stroke-linecap="round" stroke-linejoin="round"/>
<path d="M68.8567 52.9954C68.8567 52.9954 67.3851 58.6604 61.3517 58.0744C55.4655 58.8257 52.905 54.9939 52.905 54.9939C52.905 54.9939 53.6408 50.6888 52.9418 47.7736C52.2445 45.2146 51.3843 42.7048 50.3666 40.2603C50.3666 40.2603 47.4897 40.373 45.8636 39.3136C44.2375 38.2542 42.2583 33.904 42.5011 28.5696C42.7439 23.2351 48.5713 15.564 48.5713 15.564L56.216 13.6255L66.6787 13.9561L68.7169 15.6767L72.3075 21.9653C72.5563 22.6076 72.7124 23.2833 72.771 23.9714C72.6775 25.0236 72.7345 26.0841 72.9402 27.1195C73.2492 27.9835 74.478 30.0271 74.7723 32.0557C75.0666 34.0843 73.5877 42.2062 73.5877 42.2062C73.5877 42.2062 72.9917 45.8277 70.9021 46.1432C69.9644 46.6421 68.9439 46.958 67.8928 47.0749C67.6454 47.3229 67.4699 47.6358 67.3855 47.9791C67.3011 48.3225 67.3111 48.683 67.4145 49.0208C67.7713 50.3892 68.2542 51.72 68.8567 52.9954Z" fill="white"/>
<path d="M85.86 77.9396C85.86 77.9396 87.0519 59.1188 91.599 54.205L99.4351 68.7659L92.4084 79.8405L85.86 77.9396Z" fill="#263238"/>
<path d="M61.0352 28.7574C61.0352 28.7574 57.3121 25.6243 54.8914 29.6139C54.8914 29.6139 58.1362 27.9985 61.0352 28.7574Z" fill="#263238"/>
<path d="M58.3643 21.1689C58.2092 22.2826 57.7407 23.3262 57.0158 24.1732C56.2909 25.0201 55.3407 25.6339 54.2807 25.9399" stroke="#263238" stroke-linecap="round" stroke-linejoin="round"/>
<path d="M64.4272 26.1953C64.8114 26.9678 65.3357 27.6587 65.9723 28.2314C66.3955 28.6376 66.8966 28.9497 67.4438 29.1481C68.1796 29.396 69.0626 29.3284 69.7983 29.6515C69.8732 29.6776 69.9394 29.7244 69.9896 29.7867C70.0437 29.8716 70.0719 29.971 70.0706 30.0722C70.1045 30.6505 69.9963 31.2283 69.7561 31.7531C69.5158 32.278 69.151 32.7332 68.6947 33.0775" stroke="#263238" stroke-linecap="round" stroke-linejoin="round"/>
<path d="M67.436 27.1044C67.436 27.1044 66.4868 22.5964 70.8721 23.746C70.0984 24.0242 69.3918 24.4676 68.7993 25.0467C68.2067 25.6259 67.742 26.3274 67.436 27.1044Z" fill="#263238"/>
<path d="M69.6289 21.1689C69.6289 21.1689 66.3032 21.1238 65.0671 19.6662" stroke="#263238" stroke-linecap="round" stroke-linejoin="round"/>
<path d="M70.8721 35.3466C70.8721 35.3466 68.3336 37.4653 65.7658 36.6238C63.8447 35.9363 61.9859 35.079 60.2107 34.0618C60.2107 34.0618 63.8086 40.666 66.6413 40.2753C69.4741 39.8846 70.8721 35.3466 70.8721 35.3466Z" fill="#263238"/>
<path d="M53.1183 17.6903L64.3904 14.3243L68.6432 15.6767L72.3221 21.9653C72.6248 22.5891 72.7833 23.2753 72.7857 23.9714V25.9775C72.7915 26.6731 72.9499 27.3586 73.2492 27.9835L74.3014 30.1624C74.64 30.8616 74.7995 31.6371 74.7649 32.4164C74.6402 35.823 74.2092 39.2108 73.4773 42.5368C73.0432 44.2048 70.7696 46.7894 69.1068 47.0448C66.4212 47.5257 61.3811 46.2935 61.3811 46.2935C60.8049 46.2927 60.2351 46.1694 59.7081 45.9314C59.1811 45.6934 58.7085 45.3459 58.3203 44.9111L54.8915 41.0718" stroke="#263238" stroke-linecap="round" stroke-linejoin="round"/>
<path d="M50.9039 34.8131C50.9039 34.8131 46.0109 29.967 43.6417 31.635C41.2725 33.3029 44.2377 39.2009 47.2765 40.1025C48.0963 40.3694 48.9818 40.3344 49.779 40.0036C50.5762 39.6727 51.2346 39.067 51.6396 38.2918" stroke="#263238" stroke-linecap="round" stroke-linejoin="round"/>
<path d="M49.5572 33.4081C50.1129 33.4828 50.6776 33.4471 51.22 33.3029C51.492 33.2338 51.739 33.0867 51.9319 32.8791C52.1248 32.6714 52.2556 32.4118 52.309 32.1309C52.3118 31.6114 52.1548 31.1042 51.8602 30.6808C51.1014 29.2464 50.5841 27.6921 50.3298 26.0826C50.2778 25.9422 50.2778 25.7873 50.3298 25.6469C50.4286 25.5252 50.5625 25.4384 50.7124 25.3989C51.0628 25.2287 51.3726 24.9826 51.6204 24.6777C51.8682 24.3727 52.0479 24.0163 52.1471 23.6333C52.338 22.8653 52.4198 22.0733 52.3899 21.2816C52.3899 20.2072 52.3899 19.1403 51.6542 18.4491L65.244 14.2416L68.7168 15.6767C68.7168 15.6767 73.0211 15.6767 74.0586 11.2889C75.096 6.90109 70.9462 6.94617 70.9462 6.94617C70.9462 6.94617 71.4834 2.24282 67.4219 0.717611C63.3604 -0.807596 62.4406 5.97695 56.3852 7.41199C50.3297 8.84704 39.3225 8.16333 36.7105 17.2995C33.7674 27.6003 36.4162 36.1204 44.0683 37.2099C44.0683 37.2099 41.5593 33.1001 43.7151 31.65C45.8709 30.1999 49.5572 33.4081 49.5572 33.4081Z" fill="#263238"/>
<path d="M60.0643 7.17908C60.0643 7.17908 63.265 4.74476 62.7867 2.43817C62.3085 0.131574 59.564 -0.229066 57.8791 1.68683C56.1942 3.60273 55.3627 7.06637 50.7126 8.56904C46.0625 10.0717 57.7172 10.4474 57.7172 10.4474L60.0643 7.17908Z" fill="#263238"/>
<path opacity="0.31" d="M40.7425 25.6544C41.1421 27.2788 41.7325 28.848 42.501 30.3277" stroke="white" stroke-linecap="round" stroke-linejoin="round"/>
<path opacity="0.31" d="M62.7495 4.35406C62.6027 5.27507 62.2763 6.15661 61.7897 6.94645C61.3031 7.73629 60.6663 8.41836 59.9168 8.95223C58.4105 10.0049 56.7486 10.804 54.9944 11.3189C53.052 11.9801 51.0727 12.5511 49.1082 13.032C47.3874 13.3216 45.7261 13.9031 44.1932 14.7525C41.6621 16.3829 40.3819 19.5686 40.4039 22.6265C40.4039 22.9345 40.404 23.2426 40.4407 23.5506" stroke="white" stroke-linecap="round" stroke-linejoin="round"/>
<path opacity="0.31" d="M68.8786 4.17377C69.2183 5.78215 69.1072 7.45575 68.558 9.0026C68.0088 10.5494 67.0438 11.9069 65.7736 12.9193" stroke="white" stroke-linecap="round" stroke-linejoin="round"/>
<path d="M93.093 71.1777C92.9017 72.3122 93.3578 73.3415 94.101 73.4692C94.8441 73.597 95.6093 72.778 95.7933 71.6435C95.9772 70.509 95.5284 69.4872 94.7853 69.3519C94.0421 69.2167 93.2769 70.0431 93.093 71.1777Z" stroke="#263238" stroke-linecap="round" stroke-linejoin="round"/>
<path d="M104.851 65.2271L90.8492 67.0078L87.2881 95.7613L101.283 92.6808L104.851 65.2271Z" fill="white"/>
<path d="M104.851 65.2271L90.8492 67.0078L87.2881 95.7613L101.283 92.6808L104.851 65.2271Z" stroke="#263238" stroke-linecap="round" stroke-linejoin="round"/>
<path d="M105.101 64.9867L102.945 63.6343L88.8919 65.2271L85.8163 94.1234L87.0966 96.0468L90.8491 67.0078L105.101 64.9867Z" fill="#263238"/>
<path d="M85.8604 99.3602L85.6543 119.008C85.6543 119.008 81.1293 135.537 53.1182 132.817L51.3597 130.375" stroke="#263238" stroke-linecap="round" stroke-linejoin="round"/>
<path d="M88.3325 78.5783L85.8603 77.9397V82.38" stroke="#263238" stroke-linecap="round" stroke-linejoin="round"/>
<path d="M104.38 71.343C104.38 71.343 107.963 71.2528 109.53 72.6052C111.097 73.9576 113.209 77.9772 113.018 80.9375C112.826 83.8977 112.51 85.3779 110.612 86.888C108.713 88.3982 95.2707 87.1285 93.056 81.5686C96.148 81.5265 99.2286 81.9596 102.194 82.8534C106.41 84.2884 99.5971 79.7053 99.5971 79.7053C99.5971 79.7053 94.8219 77.1883 93.8359 76.2492C92.85 75.31 93.0634 72.1694 93.0634 72.1694C93.0634 72.1694 91.864 70.5616 92.8132 69.675C93.5352 69.1102 94.4131 68.7921 95.3222 68.7659L103.82 72.9132L104.38 71.343Z" fill="white"/>
<path d="M104.041 71.4106C105.605 71.0994 107.225 71.3019 108.669 71.9891C111.193 73.1311 112.731 78.9915 112.731 78.9915C113.179 80.7606 113.179 82.617 112.731 84.3861C112.731 84.3861 111.149 89.6079 103.166 87.1285" stroke="#263238" stroke-linecap="round" stroke-linejoin="round"/>
<path d="M108.391 75.1297L95.3526 68.7659C95.3526 68.7659 92.8436 69.1866 92.4095 70.1559C91.9754 71.1251 100.731 76.9178 104.837 77.9397" stroke="#263238" stroke-linecap="round" stroke-linejoin="round"/>
<path d="M93.0933 71.1777C93.0933 71.1777 92.9829 74.5587 93.6893 75.9937C94.3956 77.4288 101.65 80.5017 101.65 80.5017" stroke="#263238" stroke-linecap="round" stroke-linejoin="round"/>
<path d="M99.4351 82.38C99.4351 82.38 94.0271 80.7121 93.0853 81.5686C92.1435 82.4251 97.3675 84.3861 97.3675 84.3861" stroke="#263238" stroke-linecap="round" stroke-linejoin="round"/>
<path d="M54.892 133.125C54.892 133.125 50.779 145.439 58.8726 154.561C66.9661 163.682 140.323 184.126 183.616 187.161L186.052 178.596L90.9525 138.219L93.0862 136.048L119.942 120.863L121.009 153.539L132.524 157.979C132.524 157.979 147.924 109.398 148.711 98.5638C149.498 87.7295 139.882 81.8616 130.67 85.4455C121.458 89.0293 94.6829 101.381 85.8315 112.779L85.6254 119.015C85.6254 119.015 82.5499 133.794 54.892 133.125Z" fill="#263238"/>
<path d="M91.2466 138.159L80.4748 133.388" stroke="white" stroke-linecap="round" stroke-linejoin="round"/>
<path d="M93.0566 134.883C93.0783 132.362 92.7386 129.851 92.0486 127.43" stroke="white" stroke-linecap="round" stroke-linejoin="round"/>
<path d="M130.67 101.486C130.67 101.486 120.678 109.007 119.942 120.863" stroke="white" stroke-linecap="round" stroke-linejoin="round"/>
<path d="M67.4369 47.1876C67.2295 49.033 67.5462 50.9004 68.3493 52.5671C68.3493 52.5671 87.9798 51.4927 91.5998 54.205L97.8687 65.2647" stroke="#263238" stroke-linecap="round" stroke-linejoin="round"/>
<path d="M62.7496 57.849C68.4004 56.429 68.9375 52.6798 68.9375 52.6798L73.1094 52.4018C73.1094 52.4018 71.2552 61.0572 63.3603 62.4622C55.4654 63.8672 48.0193 56.5191 48.0193 56.5191C50.7417 55.2193 52.6106 54.3929 52.6106 54.3929C52.6106 54.3929 57.0988 59.254 62.7496 57.849Z" fill="#263238"/>
<path d="M31.1258 100.352C31.1258 100.352 45.7162 105.138 52.9048 94.4014L51.3817 80.9901C49.2553 76.3619 43.3985 66.0986 33.0241 64.7387C27.9693 68.533 30.4488 93.9431 31.1258 100.352Z" fill="#263238"/>
<path d="M34.0619 101.088C34.0619 101.088 36.7107 122.163 45.7534 131.142C45.7534 131.142 56.6429 130.668 65.0528 125.176C73.4628 119.684 78.1055 108.046 84.7128 100.044C84.7128 100.044 93.0639 100.885 95.4625 99.3451C97.8961 97.5523 100.223 95.613 102.43 93.5373L101.65 90.7274L103.166 87.8047V83.2215L104.255 81.8241L104.851 79.6752L102.43 80.1336L88.3034 92.6132L87.2586 93.5524L85.9784 92.3577L87.2586 81.1854C87.2586 81.1854 80.0995 86.7828 79.4373 88.4057C78.7751 90.0286 78.0467 92.3577 78.0467 92.3577C78.0467 92.3577 72.3003 99.285 68.2167 102.335C64.1331 105.386 56.6208 110.262 54.2001 112.771C52.1854 108.119 50.4338 103.353 48.954 98.4961C48.954 98.4961 43.0972 102.035 34.0619 101.088Z" fill="white"/>
<path d="M96.6987 91.5613L104.255 81.8541L104.851 79.7053L101.65 80.4566L87.2881 93.5148L86.0078 92.3202L87.2881 81.1479C87.2881 81.1479 81.2032 86.2043 80.1657 87.2712C79.1283 88.3381 78.0761 92.3202 78.0761 92.3202C74.8119 96.2615 71.1878 99.8766 67.2528 103.117C61.3298 107.835 54.3252 110.255 49.5942 118.97" stroke="#263238" stroke-linecap="round" stroke-linejoin="round"/>
<path d="M103.166 83.2516V87.8347L99.4356 93.5523" stroke="#263238" stroke-linecap="round" stroke-linejoin="round"/>
<path d="M101.599 90.2465L102.43 93.5524C102.43 93.5524 97.1326 99.1423 94.4396 99.9387C91.7467 100.735 84.9849 99.9387 84.9849 99.9387C84.5066 99.8861 82.7408 102.396 82.4685 102.726C78.7308 107.136 76.3542 112.388 73.1389 117.144C66.6935 126.679 57.0253 130.06 45.7532 131.157C45.378 131.194 36.5339 120.503 34.0617 101.103" stroke="#263238" stroke-linecap="round" stroke-linejoin="round"/>
<path d="M53.8833 112.771C51.7023 108.228 50.0574 103.436 48.983 98.4961" stroke="#263238" stroke-linecap="round" stroke-linejoin="round"/>
<path d="M50.3666 39.9447C52.6254 44.866 53.6334 48.7654 53.0669 54.2201C53.0669 54.2201 34.253 61.6883 32.2076 65.6553C30.1621 69.6224 28.926 88.3757 31.3099 99.7283" stroke="#263238" stroke-linecap="round" stroke-linejoin="round"/>
<path d="M68.4004 52.7925C68.4004 52.7925 60.5643 55.4072 58.3202 44.9486L60.5643 46.2484L67.1863 47.3078L68.4004 52.7925Z" fill="#263238"/>
</svg>
