<svg width="800" height="800" viewBox="0 0 800 800" fill="none" xmlns="http://www.w3.org/2000/svg">
<path d="M482.596 451.632L368.447 434.811C367.704 434.811 367.485 435.501 367.485 436.148V531.985C367.485 541.172 302.632 565.023 301.977 563.772L301.889 573.908C301.889 575.806 303.55 577.488 305.691 577.488H307.133C307.133 577.488 307.133 577.488 307.177 577.488L402.884 595.042C407.341 595.042 411.712 594.05 415.732 592.411L468.349 570.544C477.832 566.619 483.819 558.165 483.819 548.935V452.969C483.776 452.279 483.339 451.632 482.596 451.632Z" fill="black"/>
<path d="M355.904 429.204V525.084C355.904 534.53 349.742 543.156 340.04 547.21L304.554 562.177C302.238 563.169 303.025 566.231 305.603 566.231L403.145 583.785C407.515 583.785 411.842 582.923 415.819 581.284L455.15 564.937C464.896 560.883 471.145 552.257 471.145 542.725V446.759C471.145 446.37 470.795 446.068 470.358 446.068L356.734 428.514C356.253 428.471 355.904 428.816 355.904 429.204Z" fill="white"/>
<path d="M403.145 584.691C403.101 584.691 403.014 584.691 402.97 584.691L305.515 567.18C303.898 567.137 302.587 566.102 302.281 564.678C301.975 563.255 302.762 561.918 304.204 561.314L339.69 546.348C348.955 542.423 354.942 534.098 354.942 525.084V429.204C354.942 428.299 355.728 427.522 356.734 427.522C356.777 427.522 356.821 427.522 356.865 427.522L470.402 445.033C471.319 445.076 472.106 445.81 472.106 446.715V542.681C472.106 552.515 465.595 561.573 455.543 565.756L416.212 582.103C412.147 583.828 407.602 584.691 403.145 584.691ZM356.865 429.463V525.041C356.865 534.832 350.397 543.846 340.433 548.073L304.947 563.039C304.379 563.298 304.073 563.729 304.16 564.247C304.248 564.721 304.685 565.239 305.603 565.239C305.646 565.239 305.734 565.239 305.777 565.239L403.232 582.75C407.428 582.75 411.667 581.887 415.469 580.335L454.8 563.988C464.152 560.106 470.183 551.739 470.183 542.681V446.931L356.865 429.463Z" fill="black"/>
<path d="M660.024 528.448L647.307 540.18L175.11 459.525L180.18 157.868L195.475 149.76C198.272 148.293 201.506 147.776 204.653 148.336L652.814 228.128C659.544 229.336 664.438 235.116 664.438 241.844L664.526 518.226C664.526 522.108 662.909 525.817 660.024 528.448Z" fill="black"/>
<path d="M636.381 541.819L184.375 461.294C178.737 460.302 174.673 455.471 174.673 449.821V169.384C174.673 162.138 181.316 156.617 188.57 157.911L640.577 238.437C646.214 239.429 650.278 244.259 650.278 249.909V530.346C650.278 537.635 643.592 543.113 636.381 541.819Z" fill="white"/>
<path d="M638.479 542.983C637.736 542.983 636.949 542.897 636.206 542.768L184.2 462.242C178.125 461.164 173.711 455.945 173.711 449.821V169.384C173.711 165.632 175.372 162.095 178.3 159.723C181.228 157.307 185.03 156.315 188.745 157.006L640.751 237.531C646.826 238.609 651.24 243.828 651.24 249.953V530.389C651.24 534.142 649.579 537.678 646.651 540.051C644.335 541.948 641.451 542.983 638.479 542.983ZM636.556 540.913C639.703 541.474 642.98 540.654 645.427 538.584C647.918 536.557 649.317 533.538 649.317 530.389V249.909C649.317 244.734 645.559 240.291 640.402 239.385L188.395 158.86C185.249 158.299 182.015 159.119 179.524 161.189C177.033 163.216 175.634 166.236 175.634 169.384V449.821C175.634 454.996 179.393 459.439 184.549 460.345L636.556 540.913Z" fill="black"/>
<path d="M564.449 478.158L252.331 422.519C250.452 422.174 249.097 420.578 249.097 418.723V221.961C249.097 219.545 251.326 217.734 253.73 218.165L565.847 273.804C567.726 274.149 569.081 275.745 569.081 277.599V474.319C569.081 476.734 566.852 478.589 564.449 478.158Z" fill="white"/>
<path d="M565.148 479.15C564.842 479.15 564.58 479.107 564.274 479.064L252.156 423.425C249.84 422.993 248.136 421.009 248.136 418.68V221.961C248.136 220.537 248.791 219.157 249.884 218.251C251.02 217.346 252.462 216.957 253.904 217.216L566.022 272.855C568.338 273.286 570.042 275.27 570.042 277.599V474.319C570.042 475.742 569.387 477.123 568.294 478.028C567.377 478.762 566.284 479.15 565.148 479.15ZM564.623 477.209C565.497 477.381 566.371 477.123 567.027 476.562C567.683 476.001 568.076 475.182 568.076 474.319V277.599C568.076 276.176 567.071 274.968 565.629 274.71L253.511 219.071C252.637 218.898 251.763 219.157 251.107 219.718C250.452 220.279 250.059 221.098 250.059 221.961V418.723C250.059 420.147 251.064 421.354 252.506 421.613L564.623 477.209Z" fill="black"/>
<path d="M542.948 318.358C542.904 318.358 542.816 318.358 542.773 318.358L274.488 270.526C273.964 270.44 273.614 269.922 273.701 269.405C273.789 268.887 274.313 268.542 274.838 268.628L543.122 316.417C543.647 316.503 543.996 317.021 543.909 317.539C543.822 318.013 543.385 318.358 542.948 318.358Z" fill="black"/>
<path d="M508.991 331.34C508.947 331.34 508.86 331.34 508.816 331.34L274.444 289.59C273.92 289.503 273.57 288.986 273.657 288.468C273.745 287.951 274.269 287.606 274.794 287.692L509.166 329.443C509.69 329.529 510.04 330.046 509.953 330.564C509.865 330.995 509.472 331.34 508.991 331.34Z" fill="black"/>
<path d="M542.948 356.399C542.904 356.399 542.817 356.399 542.773 356.399L275.275 308.826C274.751 308.74 274.401 308.222 274.488 307.705C274.576 307.187 275.1 306.842 275.625 306.928L543.123 354.502C543.647 354.588 543.997 355.105 543.909 355.623C543.822 356.054 543.385 356.399 542.948 356.399Z" fill="black"/>
<path d="M542.947 375.42C542.903 375.42 542.816 375.42 542.772 375.42L467.037 361.92C466.512 361.834 466.163 361.316 466.25 360.799C466.338 360.281 466.818 359.936 467.386 360.022L543.121 373.522C543.646 373.609 543.996 374.126 543.908 374.644C543.821 375.118 543.384 375.42 542.947 375.42Z" fill="black"/>
<path d="M383.611 347.04C383.567 347.04 383.48 347.04 383.436 347.04L274.444 327.631C273.92 327.545 273.57 327.027 273.657 326.51C273.745 325.992 274.269 325.647 274.794 325.733L383.786 345.142C384.31 345.229 384.66 345.746 384.572 346.264C384.485 346.695 384.092 347.04 383.611 347.04Z" fill="black"/>
<path d="M542.948 394.441C542.904 394.441 542.817 394.441 542.773 394.441L489.457 384.952C488.933 384.866 488.583 384.348 488.671 383.831C488.758 383.313 489.282 382.968 489.807 383.054L543.123 392.543C543.647 392.629 543.997 393.147 543.91 393.664C543.822 394.139 543.385 394.441 542.948 394.441Z" fill="black"/>
<path d="M440.686 376.24C440.642 376.24 440.554 376.24 440.511 376.24L274.488 346.652C273.964 346.566 273.614 346.048 273.701 345.53C273.789 345.013 274.313 344.668 274.838 344.754L440.86 374.342C441.385 374.428 441.734 374.946 441.647 375.463C441.56 375.895 441.166 376.24 440.686 376.24Z" fill="black"/>
<path d="M542.947 413.462C542.903 413.462 542.816 413.462 542.772 413.462L273.526 365.241C273.002 365.155 272.652 364.637 272.739 364.12C272.827 363.602 273.351 363.257 273.876 363.343L543.122 411.564C543.646 411.65 543.996 412.168 543.909 412.685C543.821 413.16 543.384 413.462 542.947 413.462Z" fill="black"/>
<path d="M486.31 422.433C486.266 422.433 486.179 422.433 486.135 422.433L274.488 384.693C273.964 384.607 273.614 384.089 273.701 383.572C273.789 383.054 274.313 382.709 274.838 382.795L486.485 420.535C487.009 420.621 487.359 421.139 487.272 421.656C487.184 422.088 486.747 422.433 486.31 422.433Z" fill="black"/>
<path d="M549.302 640.333C570.92 634.638 585.715 619.927 582.347 607.476C578.98 595.025 558.725 589.548 537.107 595.243C515.49 600.937 500.695 615.648 504.063 628.099C507.43 640.55 527.685 646.028 549.302 640.333Z" fill="white"/>
<path d="M532.589 643.478C517.643 643.478 505.669 637.828 503.091 628.296C501.386 621.913 504.009 614.882 510.476 608.413C516.857 602.073 526.209 597.069 536.828 594.266C558.942 588.443 579.744 594.223 583.283 607.205C586.78 620.144 571.659 635.413 549.546 641.235C543.733 642.745 537.965 643.478 532.589 643.478ZM553.96 593.835C548.715 593.835 543.078 594.568 537.353 596.077C527.039 598.795 518.037 603.625 511.875 609.75C505.888 615.702 503.44 622.128 504.97 627.822C508.204 639.769 527.957 644.945 549.021 639.381C570.085 633.817 584.594 619.584 581.361 607.68C579.044 598.967 567.944 593.835 553.96 593.835Z" fill="black"/>
<path d="M513.011 631.617C515.502 629.719 518.43 628.469 521.533 628.081C531.147 626.873 532.676 625.838 551.905 616.392C566.327 609.319 582.977 617.859 591.499 605.868C596.437 598.881 573.931 571.752 538.795 579.601C518.779 584.087 521.62 594.05 495.355 609.405C495.355 609.405 387.106 676.128 364.469 654.261C339.34 630.021 317.183 591.98 317.183 591.98L251.806 670.176C251.806 670.176 334.489 726.031 384.003 723.96C412.934 722.753 513.011 631.617 513.011 631.617Z" fill="white"/>
<path d="M381.294 724.995C331.78 724.995 252.068 671.513 251.237 670.953C251.019 670.78 250.844 670.564 250.844 670.306C250.8 670.047 250.888 669.788 251.063 669.572L316.484 591.462C316.703 591.204 317.009 591.074 317.314 591.117C317.62 591.16 317.926 591.333 318.057 591.592C318.276 591.98 340.433 629.763 365.168 653.657C387.019 674.748 493.782 609.319 494.874 608.672C506.718 601.728 512.617 595.905 517.381 591.204C523.237 585.424 527.432 581.24 538.62 578.739C566.064 572.614 584.376 587.192 590.232 595.775C593.203 600.132 593.99 604.143 592.373 606.472C587.26 613.718 579.394 613.89 571.046 614.063C564.841 614.192 558.417 614.365 552.43 617.298L548.715 619.109C532.851 626.873 530.841 627.908 521.707 629.072C518.779 629.461 516.026 630.582 513.666 632.394C509.165 636.491 412.977 723.745 384.047 724.995C383.129 724.952 382.211 724.995 381.294 724.995ZM253.248 669.961C262.075 675.783 335.188 723.055 381.294 723.055C382.211 723.055 383.085 723.055 383.96 723.011C412.235 721.847 511.394 631.833 512.399 630.884L512.443 630.841C515.065 628.814 518.167 627.52 521.445 627.132C530.229 626.01 531.89 625.191 547.841 617.384L551.556 615.573C557.936 612.424 564.579 612.295 571.003 612.165C579.175 611.993 586.211 611.82 590.8 605.394C591.936 603.798 591.106 600.434 588.658 596.854C583.064 588.659 565.54 574.728 539.101 580.637C528.481 583.009 524.417 587.02 518.779 592.584C513.972 597.371 507.985 603.28 495.923 610.311C492.165 612.64 415.337 659.652 378.672 659.652C372.379 659.652 367.222 658.272 363.9 655.037C341.438 633.386 321.16 600.391 317.183 593.748L253.248 669.961Z" fill="black"/>
<path d="M355.903 799.008C262.425 792.84 183.062 770.499 163.003 760.363C141.59 749.537 121.88 736.253 104.487 720.855C88.1423 706.406 73.2837 689.714 60.3917 671.254C57.42 657.884 55.0601 643.133 52.5691 627.477C51.564 621.18 50.5152 614.667 49.3789 607.982C43.3481 572.097 41.5126 541.862 43.9162 518.183C45.9702 498.127 51.0833 482.6 59.0807 471.99C66.1167 462.674 75.294 457.282 86.3069 455.945C89.4097 455.557 93.2117 455.385 97.6256 455.385C127.168 455.385 176.988 463.623 208.759 473.758C242.846 484.627 276.584 514.56 298.916 537.721C323.826 563.6 342.137 589.09 344.54 594.956C351.052 610.785 349.653 631.488 340.389 656.547C332.828 676.991 321.903 694.976 316.047 703.861C314.517 706.19 311.939 707.571 309.142 707.571C308.268 707.571 307.394 707.441 306.563 707.139L301.844 705.587C301.538 705.5 301.232 705.414 300.882 705.414C299.964 705.414 299.09 705.845 298.522 706.579C297.954 707.312 297.779 708.261 298.042 709.166C301.013 719.259 313.993 755.101 355.903 799.008Z" fill="#0C3B5B"/>
<path d="M97.5821 456.29C111.348 456.29 131.014 458.231 151.597 461.596C172.836 465.089 193.027 469.704 208.41 474.621C242.322 485.447 275.929 515.25 298.217 538.368C323.039 564.161 341.263 589.522 343.666 595.301C350.09 610.914 348.692 631.445 339.515 656.288C331.954 676.646 321.116 694.588 315.26 703.43C313.905 705.5 311.589 706.751 309.098 706.751C308.312 706.751 307.525 706.622 306.782 706.363L302.062 704.81C301.669 704.681 301.276 704.595 300.839 704.595C299.659 704.595 298.479 705.155 297.78 706.104C297.037 707.053 296.818 708.261 297.168 709.425C300.97 722.192 314.037 755.877 353.761 797.93C302.936 794.436 259.803 786.457 232.314 780.289C197.79 772.569 172.88 764.288 163.441 759.543C142.114 748.761 122.448 735.476 105.099 720.165C88.8418 705.802 74.0706 689.24 61.2223 670.866C58.2943 657.582 55.9344 642.874 53.4434 627.304C52.4382 621.007 51.3894 614.494 50.2532 607.809C44.2223 572.01 42.3869 541.862 44.7905 518.269C46.8444 498.386 51.8701 482.988 59.7801 472.508C66.685 463.407 75.6439 458.102 86.3945 456.808C89.4536 456.463 93.2119 456.29 97.5821 456.29ZM97.5821 454.565C93.2556 454.565 89.3662 454.738 86.176 455.126C59.0372 458.447 28.3149 488.337 48.5051 608.154C52.4382 631.617 55.41 652.838 59.5616 671.6C84.7775 707.743 118.253 738.668 162.61 761.139C182.232 771.059 262.556 794.005 358.044 800C315.479 755.963 302.193 720.294 298.828 708.994C298.435 707.614 299.484 706.363 300.839 706.363C301.057 706.363 301.276 706.406 301.494 706.492L306.214 708.045C307.175 708.347 308.137 708.52 309.098 708.52C312.114 708.52 315.042 707.053 316.746 704.422C328.371 686.695 360.71 632.049 345.283 594.697C340.476 583.052 273.394 493.599 208.978 473.025C176.595 462.631 126.25 454.565 97.5821 454.565Z" fill="black"/>
<path d="M210.682 338.198C210.682 338.198 219.641 351.396 220.166 362.351C220.297 365.241 221.521 374.471 228.731 384.564C229.431 385.556 229.256 386.85 228.382 387.669L221.477 393.751C220.996 394.182 220.734 394.743 220.734 395.39C220.69 399.228 220.603 413.505 220.122 416.136C219.598 419.198 217.063 421.915 215.839 422.605C212.562 424.374 198.315 422.562 198.315 422.562C198.315 422.562 194.513 422.907 186.996 442.92C178.911 464.528 195.693 472.68 195.693 472.68C201.986 475.915 202.117 479.064 195.299 481.22C171.788 488.595 123.192 494.03 98.6314 466.814C97.2329 465.262 97.9321 462.76 99.9861 462.199C162.348 444.041 132.631 391.724 133.942 391.379C137.307 390.516 156.667 370.374 168.03 364.637C175.765 360.712 185.161 366.363 191.454 360.454L210.682 338.198Z" fill="white"/>
<path d="M154.788 488.164C134.205 488.164 112.179 483.247 97.8889 467.461C97.0148 466.469 96.7089 465.132 97.0585 463.881C97.4082 462.631 98.4133 461.639 99.6806 461.25C117.249 456.161 129.048 447.794 134.773 436.45C143.295 419.586 136.084 400.436 133.724 394.139C132.894 391.939 132.719 391.465 132.981 390.947C133.112 390.688 133.375 390.516 133.637 390.43C134.817 390.128 139.405 386.073 143.819 382.148C151.336 375.506 160.732 367.182 167.506 363.775C171.264 361.877 175.241 362.093 179.087 362.265C183.413 362.481 187.521 362.697 190.624 359.764L209.853 337.551C210.071 337.336 210.333 337.206 210.639 337.206C210.945 337.206 211.207 337.379 211.382 337.638C211.732 338.198 220.472 351.181 221.04 362.265C221.128 364.034 221.958 373.522 229.431 384.003C230.392 385.383 230.174 387.238 228.907 388.359L222.002 394.441C221.739 394.7 221.565 395.002 221.565 395.347C221.521 399.573 221.434 413.548 220.953 416.265C220.385 419.543 217.763 422.562 216.146 423.382C212.824 425.15 200.544 423.77 198.272 423.468C197.616 423.813 194.076 426.314 187.783 443.179C180.092 463.709 195.344 471.429 195.999 471.774C199.714 473.672 201.418 475.57 201.243 477.511C201.069 479.409 199.189 480.918 195.475 482.083C185.686 485.231 170.652 488.164 154.788 488.164ZM134.992 391.939C135.123 392.327 135.341 392.931 135.56 393.492C138.007 399.962 145.436 419.715 136.521 437.313C130.534 449.131 118.298 457.8 100.205 463.062C99.5495 463.234 99.0688 463.709 98.894 464.356C98.7192 465.003 98.8503 465.65 99.2873 466.124C123.848 493.34 172.575 487.258 194.907 480.228C198.796 479.02 199.321 477.813 199.364 477.338C199.408 476.864 199.102 475.484 195.169 473.456C194.994 473.37 177.732 464.658 186.035 442.489C193.159 423.382 197.135 421.613 198.184 421.484C198.272 421.484 198.315 421.484 198.403 421.484C203.778 422.174 213.174 422.778 215.359 421.613C216.452 421.053 218.68 418.551 219.161 415.834C219.511 413.807 219.685 403.843 219.773 395.217C219.773 394.355 220.166 393.492 220.865 392.888L227.77 386.807C228.338 386.332 228.426 385.556 227.989 384.952C220.21 374.04 219.336 364.12 219.248 362.222C218.811 353.467 212.693 342.986 210.596 339.622L192.197 360.885C192.197 360.928 192.153 360.928 192.11 360.971C188.351 364.465 183.632 364.249 179.087 363.99C175.459 363.818 171.745 363.602 168.467 365.284C161.912 368.605 152.647 376.8 145.174 383.399C139.93 388.187 136.783 390.99 134.992 391.939Z" fill="black"/>
<path d="M228.119 383.917C227.639 383.917 227.202 383.529 227.158 383.011C227.114 382.494 227.508 382.019 228.032 381.976C230.173 381.803 231.79 380.984 233.014 379.388C236.598 374.687 235.418 365.198 234.937 362.222L186.122 369.77C185.598 369.856 185.117 369.511 185.029 368.994C184.942 368.476 185.292 368.002 185.816 367.915L235.549 360.195C236.073 360.109 236.554 360.454 236.641 360.928C236.772 361.489 239.307 374.256 234.5 380.51C232.927 382.537 230.785 383.658 228.119 383.831C228.207 383.917 228.163 383.917 228.119 383.917Z" fill="black"/>
<path d="M185.86 389.696C181.752 389.696 175.284 388.187 171.788 379.733C169.646 374.514 170.345 369.899 173.667 367.355C177.119 364.724 182.451 365.026 186.602 368.131C188.176 369.296 190.23 372.53 190.448 372.875C190.71 373.307 190.579 373.911 190.142 374.169C189.705 374.428 189.093 374.299 188.831 373.867C188.263 372.962 186.559 370.46 185.466 369.641C182.014 367.053 177.644 366.751 174.89 368.864C172.268 370.848 171.788 374.558 173.623 379C178.343 390.387 188.656 387.54 189.094 387.41C189.618 387.281 190.142 387.54 190.273 388.057C190.405 388.575 190.142 389.093 189.618 389.222C189.574 389.265 188.045 389.696 185.86 389.696Z" fill="black"/>
<path d="M229.037 305.462C224.448 297.914 219.554 291.401 204.52 288.468C194.25 286.484 177.469 293.946 169.209 302.615C168.51 303.348 167.417 303.348 166.849 302.658C165.058 300.459 160.862 295.456 157.148 295.024C146.353 293.773 135.297 307.575 131.364 314.692C128.479 319.868 123.628 331.599 121.225 345.229C121.05 346.091 120.263 346.695 119.433 346.652C116.199 346.35 109.644 346.35 103.875 350.577C93.5616 358.125 94.6541 369.166 94.7852 370.503C96.1837 386.246 112.397 397.891 124.721 404.188C133.068 408.458 136.214 409.062 141.109 410.184C141.371 410.227 141.677 410.227 141.983 410.14C146.31 410.787 153.695 411.089 161.911 408.286C174.978 403.8 173.973 382.45 173.973 382.45L172.312 378.439C171.307 375.981 171.176 373.22 172.181 370.805C175.284 363.387 186.646 368.95 187.04 368.864C208.453 364.465 216.014 358.297 219.86 354.07C233.757 338.975 240.093 323.793 229.037 305.462Z" fill="black"/>
<path d="M231.703 630.97C231.659 630.97 231.615 630.97 231.528 630.97L184.942 627.347C142.245 624.026 101.035 610.224 65.1555 587.149C64.8933 586.977 64.5874 586.804 64.3252 586.632C58.6876 583.052 51.8265 581.931 45.3149 583.526L38.9782 585.079C35.0013 586.071 31.2867 588.012 28.315 590.815C27.6157 591.462 27.1787 591.937 27.1787 592.109L33.1658 626.269C59.8676 681.908 100.554 729.74 162.567 761.139C175.371 767.609 214.003 779.642 265.877 788.872C265.79 776.537 265.659 759.457 265.659 759.457V671.901C265.703 652.018 251.5 634.895 231.703 630.97Z" fill="black"/>
<path d="M265.921 789.821C265.877 789.821 265.79 789.821 265.746 789.821C216.538 781.066 176.376 769.161 162.173 762.002C132.412 746.949 106.104 727.238 83.9909 703.473C63.7571 681.735 46.3638 655.9 32.3792 626.7C32.3355 626.614 32.3355 626.528 32.2918 626.442L26.3047 592.282C26.3047 592.239 26.3047 592.196 26.3047 592.109C26.3047 591.635 26.5232 591.247 27.7469 590.125C30.806 587.279 34.6517 585.208 38.8471 584.173L45.1838 582.621C51.9139 580.939 59.1247 582.146 64.937 585.855L65.7673 586.373C101.384 609.275 142.639 623.12 185.073 626.398L231.877 630.065H231.921C252.068 634.076 266.708 651.673 266.708 671.945V759.5L266.926 788.915C266.926 789.217 266.795 789.476 266.577 789.649C266.358 789.735 266.14 789.821 265.921 789.821ZM34.171 625.967C63.2326 686.523 106.628 731.681 163.047 760.276C174.366 766.013 210.77 778.003 264.916 787.708L264.741 765.021C264.697 761.614 264.697 759.457 264.697 759.414V671.858C264.697 652.493 250.757 635.672 231.528 631.833H231.397L184.854 628.21C142.07 624.889 100.51 610.914 64.6311 587.883L63.8008 587.365C58.4254 583.958 51.7828 582.836 45.5771 584.389L39.2404 585.942C35.3946 586.891 31.8111 588.788 29.0142 591.419C28.5772 591.807 28.3587 592.066 28.2276 592.196L34.171 625.967Z" fill="white"/>
<path d="M167.636 787.708C96.8832 773.776 66.7727 757.042 45.0967 744.491C31.2433 736.468 22.7651 721.847 22.7651 706.018V601.943C22.7651 590.945 34.7831 584.044 44.4849 589.478C48.0684 591.462 51.4772 593.576 54.7548 595.689C90.4591 618.721 131.495 632.394 173.973 635.715L220.909 639.381C240.706 643.263 254.996 660.429 254.996 680.355C254.996 680.355 254.646 794.911 253.204 795.816C246.78 800.043 167.636 787.708 167.636 787.708Z" fill="white"/>
<path d="M221.827 780.634C221.74 780.634 221.696 780.634 221.609 780.591C207.974 777.313 195.082 773.776 184.331 770.326C174.542 767.177 166.894 764.288 162.218 761.915C154.57 758.034 147.097 753.85 139.93 749.407C94.0435 720.855 57.9459 679.708 32.5989 627.088C32.3804 626.614 32.5552 626.053 33.0359 625.838C33.5166 625.622 34.0847 625.795 34.3032 626.269C59.4754 678.544 95.3545 719.432 140.892 747.812C147.971 752.211 155.444 756.395 163.048 760.276C167.593 762.562 175.329 765.495 184.899 768.558C195.606 771.965 208.455 775.502 222.046 778.78C222.57 778.909 222.876 779.427 222.745 779.944C222.658 780.375 222.264 780.634 221.827 780.634Z" fill="black"/>
<path d="M682.18 573.477C735.4 573.477 778.542 530.608 778.542 477.726C778.542 424.845 735.4 381.976 682.18 381.976C628.961 381.976 585.818 424.845 585.818 477.726C585.818 530.608 628.961 573.477 682.18 573.477Z" fill="white"/>
<path d="M656.702 389.696C656.308 390.257 657.488 392.198 659.804 392.198C662.164 392.198 663.301 391.81 664.306 394.311C665.267 396.813 663.912 405.353 665.267 408.458C666.622 411.564 668.982 413.505 670.73 411.736C672.478 410.011 672.303 405.353 674.444 404.188C676.586 403.024 684.408 398.366 684.802 394.484C685.195 390.602 682.442 387.712 675.624 386.936C668.763 386.246 659.63 385.47 656.702 389.696Z" fill="black"/>
<path d="M631.487 476.562C630.569 477.079 630.045 478.028 630.088 479.064C630.22 482.298 628.996 490.407 626.374 492.995C623.052 496.273 624.276 502.225 624.232 504.64C624.145 509.514 624.582 511.67 629.87 513.999C635.114 516.329 637.212 516.458 637.605 521.116C637.998 525.774 638.61 543.717 640.183 548.375C641.757 553.033 645.078 560.581 646.826 562.306C648.574 564.031 652.682 565.023 650.147 558.424C647.613 551.825 646.04 548.72 648.968 545.054C651.896 541.388 656.79 532.848 657.14 529.57C657.533 526.292 659.281 524.351 660.854 523.963C662.428 523.575 665.749 522.41 666.71 521.245C667.672 520.081 665.749 516.803 665.137 513.87C664.569 510.98 664.569 509.212 669.42 506.883C674.315 504.554 671.955 497.955 665.312 496.23C658.669 494.504 654.605 490.795 655.348 487.129C656.135 483.463 650.847 483.851 647.744 482.083C644.641 480.357 644.728 477.597 641.232 476.303C636.556 474.535 633.235 475.57 631.487 476.562Z" fill="black"/>
<path d="M752.321 472.464C750.661 470.006 750.879 466.124 754.987 460.819C758.221 456.635 753.589 452.495 751.447 450.899C751.054 450.597 751.229 449.993 751.71 449.95C754.376 449.648 760.494 450.554 763.203 464.097C766.699 481.651 768.142 475.527 769.977 473.5C771.812 471.472 768.36 467.634 771.812 463.709C773.998 461.207 775.09 457.584 775.658 454.651C768.71 426.789 749.525 403.757 724.047 391.551C724.09 394.613 723.347 405.267 710.805 400.867C710.805 400.867 702.982 397.201 704.861 412.081C706.697 426.961 713.077 411.046 714.301 410.442C715.525 409.839 718.802 409.019 717.404 419.025C717.404 419.025 717.185 422.476 710.849 421.872C704.468 421.268 703.245 424.331 703.245 425.969C703.245 427.608 703.856 431.878 700.36 434.941C696.864 438.003 697.913 445.982 702.633 443.308C707.352 440.634 710.63 432.267 714.957 431.49C719.283 430.671 723.172 436.191 727.28 434.768C731.388 433.345 729.553 426.401 731.607 426.401C733.661 426.401 737.987 430.498 737.376 433.561C736.764 436.623 730.383 438.046 732.044 441.712C733.705 445.378 737.201 444.171 738.206 446.629C739.255 449.088 733.049 451.934 728.154 448.872C723.216 445.81 722.386 450.295 719.939 448.268C717.491 446.241 717.273 441.928 713.777 443.351C710.28 444.774 708.226 447.621 703.725 449.691C699.224 451.719 695.509 454.393 695.509 457.239C695.509 460.086 697.17 463.148 696.34 467.634C695.509 472.119 694.067 484.369 708.882 481.91C723.653 479.452 721.818 487 721.818 487.819C721.818 488.639 721.599 499.249 723.041 501.103C724.484 502.958 727.761 508.263 723.041 515.207C718.322 522.151 720.157 537.678 724.484 535.608C728.81 533.581 733.093 525.602 738.468 521.504C743.8 517.407 751.185 499.68 748.126 494.159C745.023 488.639 752.453 484.153 753.458 480.487C754.376 476.778 753.982 474.923 752.321 472.464Z" fill="black"/>
<path d="M612.607 411.521C612.694 414.928 612.082 418.637 610.072 422.088C604.041 432.568 604.216 437.787 603.648 448.268C603.08 458.749 616.365 477.166 619.687 479.107C623.008 481.048 623.532 476.433 623.532 472.766C623.532 469.1 622.134 464.658 620.167 460.388C618.201 456.118 618.201 453.401 618.813 451.675C619.381 449.95 621.741 449.346 623.314 451.115C624.887 452.84 628.645 454.393 630.437 453.314C632.666 451.977 631.792 446.715 632.579 444.99C633.365 443.265 637.648 442.1 639.396 438.391C641.144 434.725 644.072 433.172 647.568 431.404C651.064 429.679 654.211 428.902 654.779 427.738C655.347 426.573 654.604 423.856 655.566 420.751C656.527 417.645 658.887 413.979 657.926 412.426C656.964 410.874 654.036 408.372 648.573 412.254C643.111 416.136 641.756 416.136 640.183 413.203C638.609 410.313 641.931 402.722 648.748 402.722C655.566 402.722 656.92 400.393 657.139 398.668C657.357 396.942 655.172 395.002 652.856 394.613C650.496 394.225 650.147 395.562 640.357 399.444C633.846 402.032 628.121 401.428 625.018 400.738C620.561 403.93 616.409 407.553 612.607 411.521Z" fill="black"/>
<path d="M761.543 521.332C761.368 525.688 757.347 529.828 754.9 531.295C752.453 532.761 748.738 535.004 748.738 538.67C748.738 541.042 748.695 544.105 749.219 546.434C762.067 534.055 764.602 531.683 771.944 513.007C771.594 510.678 761.674 517.019 761.543 521.332Z" fill="black"/>
<path d="M682.18 574.426C628.514 574.426 584.856 531.036 584.856 477.726C584.856 424.417 628.514 381.027 682.18 381.027C735.846 381.027 779.504 424.417 779.504 477.726C779.504 531.036 735.846 574.426 682.18 574.426ZM682.18 382.968C629.607 382.968 586.823 425.495 586.823 477.726C586.823 530.001 629.607 572.485 682.18 572.485C734.753 572.485 777.537 529.958 777.537 477.726C777.537 425.495 734.753 382.968 682.18 382.968Z" fill="black"/>
<path d="M619.25 568.689C617.109 571.838 618.026 576.108 621.304 578.049C639.047 588.702 659.892 594.827 682.137 594.827C747.208 594.827 800 542.38 800 477.726C800 439.987 782.039 406.474 754.157 385.038C751.142 382.709 746.728 383.399 744.543 386.505C742.532 389.395 743.144 393.319 745.941 395.476C770.72 414.453 786.627 444.257 786.627 477.726C786.627 535.09 739.823 581.585 682.093 581.585C662.383 581.585 643.941 576.151 628.209 566.748C625.237 564.894 621.26 565.756 619.25 568.689Z" fill="black"/>
<path d="M688.91 587.753H675.668V631.66H688.91V587.753Z" fill="black"/>
<path d="M682.268 640.157C704.738 640.157 722.954 634.789 722.954 628.167C722.954 621.545 704.738 616.176 682.268 616.176C659.797 616.176 641.582 621.545 641.582 628.167C641.582 634.789 659.797 640.157 682.268 640.157Z" fill="black"/>
<path d="M499.157 163.26L418.921 150.579L459.782 43.7441L540.018 56.4677L499.157 163.26Z" fill="black"/>
<path d="M408.084 147.172L343.711 121.768L381.732 22.2219L445.711 48.7042L408.084 147.172Z" fill="black"/>
<path d="M419.096 150.579C415.337 152.261 410.05 150.752 408.083 147.172L445.972 47.324C447.808 50.9901 453.052 52.6722 456.854 51.0764L419.096 150.579Z" fill="black"/>
<path d="M421.019 145.274C417.261 146.956 411.973 145.447 410.006 141.867L447.502 43.1403C449.338 46.8064 454.582 48.4885 458.384 46.8927L421.019 145.274Z" fill="black"/>
<path d="M417.697 146.913C414.245 146.913 410.749 145.188 409.176 142.341C409.044 142.082 409.001 141.824 409.132 141.565L446.628 42.8383C446.759 42.4932 447.109 42.2345 447.502 42.2345C447.895 42.2345 448.245 42.407 448.42 42.752C449.993 45.8574 454.669 47.4533 458.078 46.0731C458.427 45.9437 458.864 45.9868 459.127 46.2456C459.389 46.5044 459.476 46.8926 459.345 47.2808L421.936 145.662C421.849 145.878 421.674 146.093 421.412 146.18C420.276 146.654 419.008 146.913 417.697 146.913ZM411.098 141.78C412.89 144.455 417.086 145.748 420.276 144.541L456.854 48.3159C453.577 48.8335 449.906 47.5827 447.764 45.2105L411.098 141.78Z" fill="black"/>
<path d="M349.173 118.36L409.962 142.471L414.201 138.891L448.507 48.661L441.296 45.8575L385.227 15.8384L347.337 104.688L349.173 118.36Z" fill="white"/>
<path d="M409.963 143.419C409.832 143.419 409.701 143.376 409.613 143.333L348.824 119.223C348.518 119.094 348.256 118.792 348.212 118.447L346.377 104.774C346.333 104.602 346.377 104.429 346.464 104.257L384.354 15.4071C384.441 15.1483 384.66 14.9758 384.922 14.8896C385.184 14.8033 385.446 14.8033 385.709 14.9327L441.734 44.9517L448.901 47.7121C449.382 47.8846 449.644 48.4453 449.469 48.9198L415.12 139.236C415.076 139.408 414.945 139.538 414.858 139.624L410.619 143.161C410.4 143.333 410.181 143.419 409.963 143.419ZM350.048 117.67L409.788 141.349L413.415 138.33L447.284 49.1786L440.947 46.7201C440.904 46.7201 440.86 46.677 440.86 46.677L385.709 17.1755L348.344 104.817L350.048 117.67Z" fill="black"/>
<path d="M347.425 104.3C347.294 104.645 347.469 104.99 347.819 105.119C353.107 106.974 391.302 120.517 404.806 131.343L414.245 138.891L450.037 44.6499L442.477 38.3527C430.502 28.3895 397.071 15.7522 386.364 11.8704C384.484 11.1803 382.43 12.1292 381.731 13.9407L347.425 104.3Z" fill="white"/>
<path d="M414.201 139.84C413.982 139.84 413.764 139.753 413.589 139.624L404.15 132.076C390.689 121.293 351.839 107.535 347.425 106.025C347.031 105.896 346.682 105.594 346.507 105.205C346.332 104.817 346.289 104.386 346.463 103.955L380.769 13.5956C381.643 11.2665 384.265 10.102 386.625 10.9646C396.808 14.6739 430.895 27.5269 443.044 37.6195L450.605 43.9166C450.91 44.1754 451.042 44.6067 450.867 44.9948L415.119 139.236C414.988 139.538 414.769 139.753 414.463 139.84C414.376 139.84 414.288 139.84 414.201 139.84ZM348.43 104.343C354.111 106.327 391.957 119.87 405.373 130.61L413.764 137.338L448.856 44.9517L441.82 39.0859C429.934 29.1658 396.065 16.4422 385.97 12.733C384.615 12.2585 383.085 12.9055 382.605 14.2426L348.43 104.343Z" fill="black"/>
<path d="M414.202 138.891L421.587 145.145L495.225 157.092L531.584 59.6593L526.297 50.645C526.165 50.3862 525.903 50.2568 525.597 50.2999C522.582 50.645 505.538 52.5427 498.502 50.7312C487.664 47.9277 476.258 48.014 465.289 50.2999L451.217 53.2328L414.202 138.891Z" fill="white"/>
<path d="M495.225 157.998C495.181 157.998 495.137 157.998 495.05 157.998L421.412 146.094C421.238 146.05 421.063 146.007 420.932 145.878L413.546 139.624C413.24 139.365 413.109 138.891 413.284 138.546L450.255 52.8016C450.387 52.4997 450.649 52.284 450.955 52.2409L465.027 49.308C476.564 46.8927 488.232 47.0652 498.677 49.7393C505.669 51.5508 523.412 49.5237 525.422 49.308C526.078 49.2217 526.733 49.5668 527.083 50.1275L532.371 59.1418C532.502 59.4006 532.546 59.7025 532.458 59.9613L496.142 157.394C495.967 157.782 495.618 157.998 495.225 157.998ZM422.024 144.239L494.613 156.014L530.535 59.7457L525.554 51.2489C521.839 51.6802 505.32 53.4486 498.24 51.5939C488.057 48.9629 476.739 48.8336 465.464 51.1626L451.872 54.0093L415.382 138.675L422.024 144.239Z" fill="black"/>
<path d="M447.589 134.534C452.396 134.75 457.16 135.397 461.836 136.518C477.263 140.141 490.461 144.066 490.461 144.066L525.903 50.7743C526.077 50.2568 525.815 49.6961 525.291 49.5667C521.97 48.5747 510.52 45.2967 497.453 42.2344C486.353 39.6466 474.815 39.5172 463.671 41.8463L449.993 44.6929L414.201 138.934L428.535 136.044C434.828 134.75 441.209 134.276 447.589 134.534Z" fill="white"/>
<path d="M490.461 145.015C490.373 145.015 490.286 145.015 490.199 144.972C490.199 144.972 488.013 144.325 484.386 143.29C470.576 139.408 456.242 137.424 441.821 137.424H430.371C429.847 137.424 429.41 136.993 429.41 136.475C429.41 135.958 429.847 135.526 430.371 135.526H441.821C456.461 135.526 470.926 137.554 484.911 141.479C487.227 142.126 488.931 142.643 489.893 142.902L525.029 50.4294C521.839 49.5236 510.345 46.2025 497.278 43.1403C486.397 40.5955 474.859 40.4661 463.89 42.7521L450.736 45.4693L415.119 139.236C414.944 139.71 414.376 139.969 413.895 139.796C413.415 139.624 413.152 139.063 413.327 138.589L449.119 44.3479C449.25 44.046 449.512 43.8303 449.818 43.7441L463.497 40.8974C474.772 38.5684 486.571 38.6978 497.715 41.2856C510.826 44.3479 522.363 47.669 525.597 48.6179C526.121 48.7473 526.515 49.1354 526.733 49.5667C526.952 50.0412 526.995 50.5588 526.821 51.0763L491.379 144.411C491.247 144.8 490.854 145.015 490.461 145.015Z" fill="black"/>
<path d="M508.29 61.1258C508.203 61.1258 508.115 61.1258 508.028 61.0827L505.843 60.4788C501.822 59.3143 498.894 58.4948 490.984 56.6402C480.146 54.0955 468.609 53.9661 457.596 56.252C457.072 56.3814 456.547 56.0364 456.46 55.5188C456.329 55.0012 456.678 54.4836 457.203 54.3974C468.478 52.0683 480.277 52.1977 491.421 54.7856C499.375 56.6402 502.303 57.5028 506.367 58.6242L508.552 59.228C509.077 59.3574 509.383 59.9181 509.208 60.3926C509.077 60.867 508.683 61.1258 508.29 61.1258Z" fill="black"/>
<path d="M505.32 72.9868C505.232 72.9868 505.145 72.9868 505.057 72.9437C499.901 71.4772 496.23 70.5283 486.834 68.3287C475.996 65.784 464.458 65.6546 453.446 67.9405C452.921 68.0699 452.397 67.7248 452.309 67.2073C452.178 66.6897 452.528 66.1721 453.052 66.0859C464.327 63.7568 476.127 63.8862 487.271 66.474C496.71 68.6737 500.425 69.6657 505.582 71.1322C506.106 71.2616 506.412 71.8223 506.237 72.2967C506.106 72.6849 505.713 72.9868 505.32 72.9868Z" fill="black"/>
<path d="M499.289 83.899C499.202 83.899 499.114 83.899 499.027 83.8558C494.963 82.6913 492.603 82.1737 487.49 80.9661C485.96 80.621 484.212 80.1897 482.114 79.7153C476.39 78.3782 470.49 77.6881 464.59 77.6881C464.022 77.6881 463.585 77.2568 463.585 76.7393C463.585 76.2217 464.022 75.7904 464.59 75.7904C470.665 75.7904 476.695 76.4805 482.595 77.8607C484.693 78.3351 486.485 78.7664 487.971 79.1115C493.127 80.3191 495.487 80.8367 499.595 82.0012C500.12 82.1306 500.426 82.6913 500.251 83.1657C500.12 83.5971 499.726 83.899 499.289 83.899Z" fill="black"/>
<path d="M496.36 96.148C496.273 96.148 496.186 96.148 496.098 96.1049C494.918 95.7599 493.782 95.4579 492.646 95.1129C488.756 93.9915 484.736 92.827 477.569 91.1449C466.731 88.6001 455.193 88.4707 444.18 90.7567C443.656 90.8861 443.132 90.541 443.044 90.0235C442.913 89.5059 443.263 88.9883 443.787 88.902C455.062 86.573 466.862 86.7024 478.006 89.2902C485.26 90.9723 489.281 92.1369 493.214 93.3014C494.35 93.6464 495.486 93.9484 496.666 94.2934C497.191 94.4228 497.497 94.9835 497.322 95.4579C497.191 95.8892 496.797 96.148 496.36 96.148Z" fill="black"/>
<path d="M486.265 104.386C486.178 104.386 486.09 104.386 486.003 104.343C481.545 103.178 477.219 102.1 473.067 101.151C462.229 98.6065 450.692 98.4771 439.679 100.763C439.155 100.892 438.63 100.547 438.543 100.03C438.455 99.5122 438.761 98.9947 439.286 98.9084C450.561 96.5794 462.36 96.7088 473.504 99.2966C477.656 100.245 482.026 101.367 486.483 102.531C487.008 102.661 487.314 103.178 487.183 103.696C487.095 104.127 486.702 104.386 486.265 104.386Z" fill="black"/>
<path d="M468.173 111.589C468.086 111.589 468.042 111.589 467.955 111.589C457.466 109.389 446.803 109.389 436.271 111.589C435.746 111.718 435.222 111.373 435.135 110.856C435.003 110.338 435.353 109.82 435.877 109.734C446.672 107.491 457.641 107.491 468.392 109.734C468.916 109.864 469.266 110.338 469.134 110.856C469.003 111.287 468.61 111.589 468.173 111.589Z" fill="black"/>
<path d="M480.978 127.677C480.89 127.677 480.803 127.677 480.716 127.634C475.821 126.253 473.461 125.693 465.77 123.924L463.89 123.493C453.052 120.948 441.515 120.819 430.502 123.105C429.978 123.234 429.453 122.889 429.366 122.372C429.235 121.854 429.585 121.336 430.109 121.25C441.384 118.921 453.183 119.051 464.327 121.638L466.207 122.07C473.942 123.881 476.258 124.442 481.196 125.822C481.721 125.951 482.027 126.512 481.852 126.987C481.764 127.418 481.371 127.677 480.978 127.677Z" fill="black"/>
<path d="M414.245 40.8112C414.07 40.8112 413.895 40.7681 413.764 40.6818C404.193 35.2042 394.317 30.8911 388.767 28.8209C388.286 28.6483 388.024 28.0876 388.198 27.6132C388.373 27.1388 388.941 26.88 389.466 27.0525C395.103 29.1228 405.067 33.5221 414.725 39.0429C415.206 39.3017 415.337 39.9055 415.075 40.3368C414.944 40.6387 414.594 40.8112 414.245 40.8112Z" fill="black"/>
<path d="M427.792 70.9596C427.486 70.9596 427.224 70.8302 427.049 70.6146C420.145 62.0316 408.607 55.9932 398.381 50.9901C397.9 50.7744 397.726 50.1706 397.944 49.6961C398.163 49.2217 398.774 49.0492 399.255 49.2648C409.7 54.3543 421.412 60.522 428.579 69.4069C428.929 69.8382 428.841 70.3989 428.404 70.744C428.186 70.8734 427.967 70.9596 427.792 70.9596Z" fill="black"/>
<path d="M422.112 87.0043C421.849 87.0043 421.631 86.918 421.456 86.7455C412.497 78.2056 404.238 73.8494 394.361 69.0619C387.718 65.8271 383.873 64.1881 380.158 62.6354C379.065 62.1609 377.973 61.7296 376.837 61.2121C376.356 60.9964 376.137 60.4357 376.356 59.9613C376.574 59.4868 377.143 59.2712 377.623 59.4868C378.76 59.9613 379.852 60.4357 380.901 60.9101C384.659 62.506 388.549 64.145 395.191 67.3798C405.199 72.2536 413.59 76.696 422.767 85.4085C423.16 85.7535 423.16 86.3573 422.811 86.7455C422.592 86.918 422.33 87.0043 422.112 87.0043Z" fill="black"/>
<path d="M418.615 98.5202C418.353 98.5202 418.135 98.434 417.916 98.2615C410.181 90.7567 403.451 87.565 394.885 83.4676C393.662 82.8638 392.351 82.2599 391.04 81.613C387.238 79.7583 383.173 77.8606 379.022 75.9628C378.541 75.7472 378.322 75.1865 378.541 74.712C378.759 74.2376 379.328 74.0219 379.808 74.2376C384.004 76.1354 388.068 78.0331 391.87 79.9309C393.181 80.5778 394.448 81.1817 395.672 81.7424C404.019 85.7535 411.274 89.204 419.227 96.8813C419.621 97.2695 419.621 97.8733 419.227 98.2184C419.14 98.434 418.878 98.5202 418.615 98.5202Z" fill="black"/>
<path d="M414.375 109.389C414.112 109.389 413.894 109.303 413.675 109.13C406.945 102.488 399.56 98.8221 391.693 94.9835C389.945 94.1209 388.197 93.2582 386.449 92.3525C385.968 92.0937 385.794 91.533 386.056 91.0586C386.318 90.5841 386.886 90.4116 387.367 90.6704C389.115 91.5762 390.819 92.4388 392.567 93.2583C400.565 97.1832 408.082 100.936 415.03 107.793C415.423 108.182 415.423 108.785 415.03 109.13C414.855 109.303 414.637 109.389 414.375 109.389Z" fill="black"/>
<path d="M410.705 121.595C410.399 121.595 410.137 121.466 409.962 121.25C402.751 112.322 377.142 101.582 365.692 98.0889C365.167 97.9164 364.905 97.3988 365.036 96.8812C365.211 96.3637 365.736 96.1049 366.26 96.2343C377.928 99.771 404.018 110.769 411.491 120.042C411.841 120.474 411.753 121.034 411.316 121.38C411.142 121.509 410.923 121.595 410.705 121.595Z" fill="black"/>
<path d="M495.224 157.998C494.831 157.998 494.481 157.782 494.306 157.394L489.499 144.713C489.324 144.239 489.587 143.678 490.067 143.506C490.548 143.333 491.116 143.592 491.291 144.066L496.098 156.747C496.273 157.221 496.011 157.782 495.53 157.955C495.443 157.998 495.311 157.998 495.224 157.998Z" fill="black"/>
<path d="M635.026 263.496C636.206 271.604 645.952 323.361 701.803 347.471C702.021 347.558 702.24 347.558 702.458 347.514C707.178 346.264 761.499 330.348 795.018 257.544C795.28 256.983 794.931 256.293 794.319 256.207C786.628 254.74 743.931 245.726 726.276 224.678C725.882 224.203 725.096 224.203 724.746 224.764C720.551 230.975 696.952 261.253 635.988 262.374C635.42 262.374 634.983 262.892 635.026 263.496Z" fill="white"/>
<path d="M702.196 348.506C701.933 348.506 701.671 348.463 701.409 348.334C645.646 324.267 635.551 273.545 634.065 263.582C633.977 263.021 634.152 262.504 634.502 262.072C634.851 261.641 635.376 261.425 635.944 261.382C696.471 260.218 719.851 230.199 723.915 224.16C724.265 223.643 724.789 223.341 725.401 223.298C726.013 223.255 726.581 223.513 727.018 223.988C744.368 244.691 786.278 253.619 794.494 255.171C795.062 255.301 795.543 255.646 795.848 256.163C796.111 256.681 796.154 257.328 795.892 257.845C762.417 330.564 708.707 346.738 702.72 348.334C702.545 348.507 702.371 348.506 702.196 348.506ZM725.532 225.282C721.381 231.406 697.476 262.159 635.988 263.323C636.599 267.464 639.309 282.214 648.749 298.992C660.854 320.471 678.815 336.516 702.152 346.566C708.052 344.97 760.975 329.055 794.1 257.155C785.797 255.56 743.319 246.502 725.532 225.282Z" fill="black"/>
<path d="M774.698 265.005C774.61 265.005 774.567 265.005 774.479 264.962C747.952 259.183 723.523 241.068 723.305 240.852C722.868 240.55 722.78 239.946 723.13 239.515C723.436 239.084 724.048 238.997 724.485 239.342C724.703 239.515 748.826 257.414 774.916 263.107C775.441 263.237 775.747 263.711 775.659 264.229C775.572 264.703 775.178 265.005 774.698 265.005Z" fill="black"/>
<path d="M768.054 279.368C767.966 279.368 767.879 279.368 767.791 279.325C755.468 276.176 743.275 270.224 731.475 261.684C731.038 261.382 730.951 260.778 731.257 260.347C731.563 259.916 732.175 259.83 732.612 260.131C744.236 268.542 756.21 274.365 768.272 277.47C768.797 277.599 769.102 278.117 768.971 278.635C768.884 279.066 768.491 279.368 768.054 279.368Z" fill="black"/>
<path d="M724.091 255.646C723.872 255.646 723.654 255.56 723.479 255.43C718.104 250.858 715.132 247.58 715.001 247.451C714.651 247.063 714.695 246.459 715.088 246.114C715.481 245.769 716.093 245.812 716.443 246.2C716.487 246.243 719.458 249.521 724.746 254.007C725.14 254.352 725.183 254.956 724.834 255.344C724.659 255.56 724.353 255.646 724.091 255.646Z" fill="black"/>
<path d="M756.387 292.781C756.255 292.781 756.124 292.738 755.993 292.695C722.649 278.505 705.955 254.568 705.78 254.309C705.474 253.877 705.605 253.274 706.042 252.972C706.479 252.67 707.091 252.799 707.397 253.23C707.572 253.446 723.96 276.952 756.78 290.927C757.261 291.142 757.479 291.703 757.304 292.178C757.086 292.566 756.736 292.781 756.387 292.781Z" fill="black"/>
<path d="M745.679 304.815C745.504 304.815 745.373 304.772 745.242 304.686C710.631 286.527 695.597 259.441 695.466 259.139C695.204 258.665 695.379 258.104 695.859 257.845C696.34 257.587 696.908 257.759 697.17 258.234C697.302 258.492 712.116 285.104 746.16 303.003C746.641 303.262 746.816 303.823 746.553 304.297C746.379 304.599 746.029 304.815 745.679 304.815Z" fill="black"/>
<path d="M731.913 315.943C731.782 315.943 731.607 315.9 731.476 315.813C725.27 312.622 719.283 308.567 713.646 303.737C713.252 303.392 713.209 302.788 713.558 302.4C713.908 302.011 714.52 301.968 714.913 302.313C720.42 307.058 726.276 311.026 732.35 314.174C732.831 314.433 733.006 314.994 732.743 315.468C732.612 315.727 732.263 315.943 731.913 315.943Z" fill="black"/>
<path d="M705.649 295.628C705.387 295.628 705.125 295.542 704.95 295.326C690.79 280.101 683.973 264.358 683.886 264.229C683.667 263.754 683.929 263.194 684.41 262.978C684.891 262.762 685.459 263.021 685.677 263.496C685.765 263.668 692.451 279.109 706.348 294.075C706.698 294.464 706.698 295.067 706.305 295.412C706.13 295.542 705.911 295.628 705.649 295.628Z" fill="black"/>
<path d="M700.448 325.647C700.405 325.647 700.405 325.647 700.448 325.647C699.88 325.647 699.487 325.216 699.487 324.698L699.574 317.797C699.574 317.582 699.487 317.366 699.312 317.194C699.137 317.021 698.919 316.978 698.7 316.978L688.911 317.797C687.993 317.884 687.076 317.495 686.507 316.762C685.939 316.029 685.765 315.037 686.114 314.174L686.595 312.88C686.77 312.449 686.551 312.147 686.42 312.061C686.333 311.975 686.07 311.716 685.633 311.802C684.366 312.104 683.099 311.543 682.531 310.379C681.919 309.214 682.225 307.877 683.23 307.015L685.153 305.462C685.59 305.117 685.459 304.642 685.415 304.513C685.371 304.384 685.196 303.995 684.672 303.995L674.446 304.125C673.921 304.125 673.484 303.694 673.484 303.176C673.484 302.658 673.921 302.227 674.446 302.227L684.672 302.098H684.716C685.896 302.098 686.901 302.788 687.294 303.866C687.687 304.988 687.381 306.195 686.464 306.928L684.541 308.481C684.06 308.869 684.235 309.344 684.322 309.516C684.41 309.646 684.672 310.077 685.24 309.948C686.202 309.689 687.25 310.034 687.95 310.767C688.649 311.5 688.824 312.579 688.518 313.527L688.037 314.821C687.906 315.209 688.081 315.511 688.168 315.598C688.256 315.684 688.474 315.943 688.867 315.9L698.657 315.08C699.443 315.037 700.186 315.296 700.754 315.813C701.322 316.331 701.628 317.064 701.628 317.84L701.541 324.741C701.366 325.216 700.973 325.647 700.448 325.647Z" fill="black"/>
<path d="M684.496 116.333C687.555 118.705 690.746 120.948 693.98 123.105L695.99 124.442C698.262 126.34 698.568 129.747 696.602 131.99L684.977 145.533L692.45 151.097C695.815 154.159 695.291 159.507 691.357 161.879L688.517 163.044C675.232 168.435 662.995 175.983 652.332 185.472C649.666 187.111 646.214 186.852 643.766 184.911L628.165 174.948C614.355 166.149 601.594 155.841 590.057 144.282L579.525 133.715C577.34 131.99 576.99 128.841 578.695 126.685L586.823 114.953C597.53 99.1672 610.116 84.7615 624.319 71.9948C626.242 69.7088 629.694 69.3638 631.967 71.3047L644.859 84.2439C650.059 89.4628 655.61 94.3365 661.466 98.8221L684.496 116.333Z" fill="white"/>
<path d="M648.486 187.413C646.607 187.413 644.772 186.809 643.242 185.601L627.684 175.681C613.831 166.839 600.983 156.488 589.402 144.886L578.913 134.319C576.379 132.248 575.942 128.539 577.996 125.995L586.08 114.349C596.787 98.5633 609.417 84.0713 623.664 71.2615C624.756 69.9676 626.286 69.1912 627.947 69.0618C629.651 68.8893 631.312 69.4069 632.623 70.5283L645.602 83.5106C650.759 88.6863 656.309 93.5601 662.121 98.0026L685.065 115.643C688.124 117.972 691.27 120.258 694.504 122.372L696.515 123.709C696.558 123.709 696.558 123.752 696.602 123.752C697.913 124.83 698.7 126.383 698.831 128.022C698.962 129.704 698.437 131.343 697.345 132.637L686.376 145.403L693.018 150.363C694.898 152.089 695.815 154.418 695.597 156.876C695.335 159.292 694.024 161.448 691.882 162.699C691.838 162.742 691.795 162.742 691.751 162.785L688.91 163.95C675.712 169.298 663.607 176.76 652.988 186.205C652.944 186.248 652.9 186.291 652.856 186.291C651.502 187.025 650.016 187.413 648.486 187.413ZM628.558 70.8733C628.427 70.8733 628.296 70.8733 628.121 70.8733C626.941 71.0027 625.849 71.5634 625.106 72.4692C625.062 72.5123 625.062 72.5554 625.019 72.5554C610.859 85.279 598.317 99.6416 587.654 115.341L579.525 127.073C578.083 128.884 578.389 131.429 580.137 132.852C580.181 132.895 580.181 132.895 580.224 132.939L590.756 143.506C602.206 155.022 614.967 165.287 628.689 174.042L644.291 184.005C644.335 184.005 644.335 184.049 644.378 184.049C646.476 185.731 649.404 185.946 651.72 184.609C662.471 175.077 674.751 167.486 688.124 162.095L690.921 160.974C692.494 160.025 693.455 158.429 693.63 156.617C693.805 154.763 693.149 152.994 691.751 151.744L684.365 146.266C684.147 146.093 684.016 145.878 683.972 145.619C683.928 145.36 684.016 145.101 684.191 144.886L695.815 131.343C696.602 130.437 696.952 129.316 696.864 128.151C696.777 126.987 696.209 125.951 695.335 125.175L693.368 123.881C690.134 121.725 686.9 119.439 683.841 117.066L660.898 99.4259C655.042 94.8972 649.404 89.9803 644.16 84.7614L631.268 71.8222C630.569 71.2615 629.564 70.8733 628.558 70.8733Z" fill="black"/>
<path d="M684.977 146.439C684.758 146.439 684.584 146.395 684.409 146.266L676.062 140.055C664.393 131.386 653.774 121.38 644.465 110.338L638.478 103.265C636.818 101.798 634.938 101.583 631.661 102.488L624.625 104.731C613.568 108.268 603.124 113.314 593.465 119.741L578.476 130.523C578.039 130.825 577.427 130.739 577.121 130.308C576.815 129.876 576.903 129.273 577.34 128.971L592.329 118.188C602.118 111.675 612.782 106.543 623.969 102.92L631.093 100.634C634.064 99.8141 637.123 99.426 639.833 101.884C639.877 101.928 639.877 101.928 639.92 101.971L645.951 109.087C655.172 120.042 665.704 129.919 677.242 138.502L685.589 144.713C686.026 145.015 686.113 145.619 685.763 146.05C685.589 146.309 685.283 146.439 684.977 146.439Z" fill="black"/>
<path d="M700.404 66.5602L689.785 57.5459C687.206 55.3462 683.36 55.4325 680.869 57.7615L675.494 62.7647C667.54 70.1832 660.81 78.8094 655.522 88.2982L648.923 100.159C648.224 101.41 648.486 102.92 649.535 103.868C654.342 108.354 667.147 122.975 678.641 129.618C680.607 130.739 683.142 130.049 684.234 128.108L691.839 115.039C696.296 107.405 701.759 100.332 708.008 94.0346L715.088 86.9611C717.928 84.1145 717.535 79.4132 714.214 77.0841L710.718 74.6257C707.222 72.081 703.769 69.4069 700.404 66.5602Z" fill="white"/>
<path d="M680.738 131.127C679.864 131.127 678.99 130.911 678.203 130.437C669.2 125.218 659.63 115.427 653.293 108.958C651.501 107.146 649.972 105.55 648.879 104.558C647.524 103.308 647.219 101.281 648.093 99.6847L654.692 87.8237C660.023 78.2487 666.797 69.5794 674.838 62.0746L680.213 57.0714C683.054 54.4405 687.424 54.3111 690.396 56.8127L701.015 65.827C704.337 68.6305 707.833 71.3477 711.373 73.8493L714.869 76.3078C716.661 77.6017 717.84 79.5857 718.015 81.7423C718.19 83.942 717.403 86.0985 715.874 87.6512L708.794 94.7247C702.589 100.935 697.17 107.966 692.756 115.514L685.152 128.582C684.452 129.747 683.36 130.61 682.049 130.955C681.612 131.041 681.175 131.127 680.738 131.127ZM685.457 56.8989C684.059 56.8989 682.661 57.4165 681.568 58.4516L676.193 63.4548C668.283 70.8302 661.64 79.327 656.396 88.7295L649.797 100.59C649.316 101.453 649.491 102.488 650.19 103.135C651.283 104.17 652.856 105.766 654.648 107.578C660.897 114.004 670.38 123.665 679.121 128.755C679.82 129.186 680.65 129.272 681.481 129.057C682.311 128.841 683.01 128.324 683.404 127.59L691.008 114.522C695.509 106.801 701.015 99.6847 707.352 93.3445L714.432 86.271C715.612 85.1065 716.18 83.5106 716.049 81.8717C715.918 80.2327 715.044 78.7663 713.689 77.8174L710.193 75.3589C706.609 72.8142 703.069 70.097 699.704 67.2503L689.085 58.236C688.08 57.3734 686.769 56.8989 685.457 56.8989Z" fill="black"/>
<path d="M708.096 95.0266C707.877 95.0266 707.702 94.9835 707.527 94.8541L699.268 88.7726C697.651 87.6081 696.646 85.8397 696.383 83.8988C696.121 81.958 696.689 80.0171 697.957 78.4644L704.031 71.0459C704.381 70.6145 704.993 70.5714 705.386 70.9165C705.823 71.2615 705.867 71.8653 705.517 72.2535L699.443 79.672C698.525 80.7934 698.132 82.2167 698.306 83.6401C698.481 85.0634 699.224 86.3573 700.404 87.2199L708.664 93.3014C709.101 93.6033 709.188 94.2071 708.838 94.6384C708.707 94.8972 708.401 95.0266 708.096 95.0266Z" fill="black"/>
<path d="M696.077 95.501C695.902 95.501 695.684 95.4579 695.552 95.3285C687.074 89.7215 675.1 75.6177 674.619 75.0139C674.27 74.6257 674.313 74.0219 674.75 73.6768C675.144 73.3318 675.756 73.3749 676.105 73.8062C676.236 73.9356 688.385 88.2982 696.645 93.7758C697.082 94.0777 697.213 94.6815 696.907 95.1128C696.689 95.3285 696.383 95.501 696.077 95.501Z" fill="black"/>
<path d="M688.475 103.566C688.256 103.566 688.081 103.523 687.906 103.351C674.14 92.9132 668.11 84.6752 667.891 84.3302C667.585 83.8989 667.673 83.295 668.11 82.9931C668.547 82.6912 669.158 82.7774 669.464 83.2088C669.508 83.295 675.583 91.5761 689.086 101.798C689.523 102.1 689.611 102.704 689.261 103.135C689.043 103.437 688.737 103.566 688.475 103.566Z" fill="black"/>
<path d="M46.3207 308.136C35.6575 308.136 25.912 305.074 18.1331 299.122C0.696089 285.837 -4.63553 260.735 4.19222 233.606C4.36702 233.088 4.89145 232.83 5.41587 233.002C5.94029 233.175 6.2025 233.692 6.02769 234.21C-2.53784 260.563 2.53155 284.845 19.313 297.612C29.8014 305.591 43.9608 308.136 59.2127 304.772C74.3772 301.408 89.6291 292.436 102.128 279.54C104.575 276.996 117.817 281.567 125.727 284.673C121.051 277.599 113.709 265.782 115.151 263.064C115.151 263.064 115.195 262.978 115.195 262.935C135.56 230.932 134.38 194.227 112.398 177.493C101.385 169.125 86.5262 166.753 70.4877 170.807C54.4492 174.862 38.7166 184.997 26.1742 199.317C25.8246 199.705 25.2127 199.748 24.8194 199.403C24.4261 199.058 24.3824 198.454 24.732 198.066C37.5366 183.488 53.6188 173.137 70.0507 168.953C86.6573 164.726 102.128 167.228 113.621 175.94C136.39 193.279 137.788 231.061 116.855 263.884C116.243 265.609 122.711 276.78 129.048 286.096C129.266 286.441 129.267 286.916 129.004 287.218C128.742 287.563 128.305 287.649 127.868 287.476C115.85 282.646 104.706 279.54 103.482 280.748C90.7216 293.946 75.1638 303.09 59.606 306.54C55.061 307.618 50.6034 308.136 46.3207 308.136Z" fill="black"/>
<path d="M48.1987 254.956L41.3375 260.002C40.3761 260.692 39.0213 260.52 38.2784 259.614L1.35047 214.37C0.563843 213.378 0.73866 211.954 1.7438 211.221L12.1448 203.544C13.1499 202.811 14.5921 203.026 15.335 204.061L48.7231 251.893C49.3787 252.929 49.1601 254.266 48.1987 254.956Z" fill="black"/>
<path d="M58.1333 278.996C61.3614 277.037 62.2364 272.653 60.0876 269.203C57.9388 265.754 53.58 264.545 50.3519 266.503C47.1237 268.462 46.2488 272.846 48.3976 276.296C50.5463 279.746 54.9052 280.955 58.1333 278.996Z" fill="black"/>
<path d="M76.6493 242.491L75.3819 239.558C72.585 233.563 72.3665 226.058 75.8189 217.259C78.9655 209.453 80.3639 204.018 78.6158 198.799C76.6056 192.89 71.4925 191.165 64.1506 193.451C59.9552 194.788 56.1969 198.627 54.0555 201.775L48.418 193.494C51.3023 189.483 57.3331 185.472 63.4951 183.488C76.8678 179.175 85.6955 185.386 88.7109 194.184C91.3767 202.034 88.8858 209.108 85.5207 217.518C82.4179 225.195 82.2868 230.846 84.6467 236.625L85.7829 239.601L76.6493 242.491ZM79.5773 259.484C78.1351 255.215 80.0143 251.29 84.0785 249.953C88.1428 248.616 91.9449 250.729 93.4307 254.999C94.7855 259.053 93.1685 263.021 88.8857 264.401C84.7778 265.738 80.932 263.539 79.5773 259.484Z" fill="black"/>
<path d="M232.58 124.072C263.053 116.021 281.107 84.983 272.906 54.747C264.705 24.5111 233.353 6.52675 202.88 14.5778C172.407 22.6289 154.353 53.6667 162.554 83.9026C170.755 114.139 202.107 132.123 232.58 124.072Z" fill="black"/>
<path d="M225.145 125.4C255.618 117.349 273.673 86.3115 265.472 56.0756C257.27 25.8397 225.919 7.8553 195.446 15.9064C164.973 23.9575 146.918 54.9953 155.119 85.2312C163.321 115.467 194.672 133.451 225.145 125.4Z" fill="white"/>
<path d="M210.507 128.324C204.04 128.324 197.572 127.245 191.279 125.089C176.551 119.999 164.752 109.519 157.978 95.5873C144.081 66.9484 156.23 32.4869 185.073 18.7713C199.014 12.1723 214.703 11.3097 229.299 16.356C244.027 21.4454 255.826 31.9262 262.6 45.8575C276.497 74.4963 264.348 108.958 235.505 122.673C227.595 126.426 219.073 128.324 210.507 128.324ZM210.114 14.9326C201.854 14.9326 193.595 16.7873 185.947 20.4103C158.065 33.6514 146.31 66.9916 159.77 94.6816C166.325 108.138 177.731 118.274 191.978 123.234C206.094 128.108 221.302 127.288 234.762 120.905C262.644 107.664 274.399 74.3238 260.939 46.6338C254.384 33.177 242.978 23.0413 228.731 18.0812C222.613 15.9678 216.363 14.9326 210.114 14.9326Z" fill="black"/>
<path d="M239.788 90.9723C239.613 90.9723 239.438 90.9292 239.264 90.7998L209.765 71.4772C209.546 71.3478 209.415 71.1321 209.372 70.9165L203.166 44.8655C203.035 44.3479 203.384 43.8303 203.865 43.7009C204.39 43.5715 204.914 43.9166 205.045 44.391L211.163 70.0539L240.356 89.204C240.793 89.5059 240.924 90.1097 240.618 90.541C240.4 90.7998 240.094 90.9723 239.788 90.9723Z" fill="black"/>
<path d="M193.596 28.6051C194.47 30.4166 193.727 32.5731 191.891 33.4358C190.056 34.2984 187.914 33.522 187.04 31.7536C186.166 29.9421 186.909 27.7856 188.745 26.923C190.536 26.0604 192.721 26.8367 193.596 28.6051Z" fill="black"/>
<path d="M174.672 42.4933C176.333 43.6147 176.77 45.8575 175.634 47.5396C174.497 49.1785 172.225 49.6098 170.564 48.4884C168.904 47.367 168.466 45.1242 169.603 43.4421C170.739 41.76 173.011 41.3719 174.672 42.4933Z" fill="black"/>
<path d="M166.365 70.6135C168.301 70.1022 169.444 68.1208 168.92 66.1879C168.396 64.2551 166.402 63.1026 164.467 63.6139C162.532 64.1252 161.388 66.1066 161.912 68.0394C162.436 69.9723 164.43 71.1248 166.365 70.6135Z" fill="black"/>
<path d="M167.941 87.1337C169.777 86.2711 171.918 87.0474 172.792 88.8158C173.666 90.6273 172.923 92.7839 171.088 93.6465C169.252 94.5091 167.111 93.7327 166.237 91.9644C165.363 90.1529 166.15 87.9963 167.941 87.1337Z" fill="black"/>
<path d="M182.365 105.551C183.501 103.912 185.774 103.48 187.434 104.602C189.095 105.723 189.532 107.966 188.396 109.648C187.259 111.287 184.987 111.718 183.326 110.597C181.666 109.475 181.272 107.19 182.365 105.551Z" fill="black"/>
<path d="M203.996 114.91C204.127 112.926 205.875 111.416 207.885 111.589C209.896 111.761 211.381 113.487 211.25 115.471C211.119 117.455 209.371 118.964 207.361 118.792C205.351 118.662 203.865 116.937 203.996 114.91Z" fill="black"/>
<path d="M227.42 112.322C226.546 110.511 227.289 108.354 229.125 107.491C230.96 106.629 233.101 107.405 233.975 109.174C234.849 110.985 234.106 113.142 232.271 114.004C230.479 114.91 228.294 114.134 227.42 112.322Z" fill="black"/>
<path d="M249.351 99.0231C251.286 98.5118 252.43 96.5304 251.906 94.5975C251.382 92.6646 249.388 91.5122 247.453 92.0235C245.517 92.5347 244.374 94.5161 244.898 96.449C245.422 98.3819 247.416 99.5344 249.351 99.0231Z" fill="black"/>
<path d="M256.58 77.3508C258.515 76.8393 259.658 74.8578 259.134 72.9249C258.609 70.992 256.615 69.8397 254.68 70.3512C252.745 70.8627 251.601 72.8442 252.126 74.7771C252.65 76.71 254.644 77.8623 256.58 77.3508Z" fill="black"/>
<path d="M252.019 54.4408C253.954 53.9295 255.098 51.9481 254.574 50.0152C254.05 48.0823 252.056 46.9299 250.121 47.4411C248.185 47.9524 247.042 49.9338 247.566 51.8667C248.09 53.7996 250.084 54.952 252.019 54.4408Z" fill="black"/>
<path d="M236.533 36.8412C238.468 36.3295 239.611 34.3479 239.087 32.4152C238.562 30.4826 236.568 29.3306 234.633 29.8423C232.698 30.3539 231.555 32.3355 232.079 34.2682C232.604 36.2009 234.598 37.3528 236.533 36.8412Z" fill="black"/>
<path d="M217.019 26.0173C216.888 28.0013 215.14 29.5109 213.129 29.3384C211.119 29.1658 209.633 27.4406 209.764 25.4566C209.895 23.4726 211.644 21.963 213.654 22.1355C215.664 22.308 217.15 24.0333 217.019 26.0173Z" fill="black"/>
<path d="M538.227 742.334C537.965 742.334 537.747 742.248 537.572 742.075C537.178 741.73 537.178 741.126 537.528 740.738L542.073 736.037C542.423 735.649 543.034 735.649 543.428 735.994C543.821 736.339 543.821 736.943 543.471 737.331L538.926 742.032C538.708 742.205 538.446 742.334 538.227 742.334Z" fill="black"/>
<path d="M522.232 758.81C521.969 758.81 521.751 758.724 521.576 758.551C521.183 758.206 521.183 757.602 521.532 757.214L526.077 752.513C526.427 752.125 527.039 752.125 527.432 752.47C527.825 752.815 527.825 753.419 527.476 753.807L522.931 758.508C522.756 758.724 522.494 758.81 522.232 758.81Z" fill="black"/>
<path d="M526.689 742.593C526.427 742.593 526.208 742.507 525.99 742.334L521.357 737.805C520.964 737.417 520.964 736.813 521.357 736.468C521.751 736.08 522.363 736.08 522.712 736.468L527.345 740.997C527.738 741.385 527.738 741.989 527.345 742.334C527.214 742.463 526.951 742.593 526.689 742.593Z" fill="black"/>
<path d="M542.946 758.336C542.684 758.336 542.466 758.249 542.247 758.077L537.615 753.548C537.221 753.16 537.221 752.556 537.615 752.211C538.008 751.823 538.62 751.823 538.97 752.211L543.602 756.74C543.995 757.128 543.995 757.732 543.602 758.077C543.427 758.249 543.165 758.336 542.946 758.336Z" fill="black"/>
<path d="M70.1819 63.5411C69.6575 63.5411 69.2205 63.1098 69.2205 62.5922L69.0894 56.0795C69.0894 55.5619 69.4827 55.1306 70.0508 55.0875C70.5752 55.0875 71.0122 55.4756 71.0559 56.0363L71.187 62.5491C71.1433 63.0667 70.75 63.5411 70.1819 63.5411Z" fill="black"/>
<path d="M70.6624 86.3573C70.1379 86.3573 69.7009 85.926 69.7009 85.4085L69.5698 78.8957C69.5698 78.3781 69.9631 77.9468 70.5313 77.9037C71.0557 77.9037 71.4927 78.2919 71.5364 78.8526L71.6675 85.3653C71.6675 85.8829 71.2305 86.3142 70.6624 86.3573C70.7061 86.3573 70.7061 86.3573 70.6624 86.3573Z" fill="black"/>
<path d="M55.7163 71.7791C55.1919 71.7791 54.7549 71.3478 54.7549 70.8303C54.7549 70.3127 55.1919 69.8814 55.7163 69.8814L62.2279 69.8383C62.7523 69.8383 63.1893 70.2696 63.1893 70.7871C63.1893 71.3047 62.7523 71.736 62.2279 71.736L55.7163 71.7791Z" fill="black"/>
<path d="M78.4854 71.6066C77.9609 71.6066 77.5239 71.1753 77.5239 70.6577C77.5239 70.1401 77.9609 69.7088 78.4854 69.7088L84.9969 69.6657C85.5214 69.6657 85.9584 70.097 85.9584 70.6146C85.9584 71.1322 85.5214 71.5635 84.9969 71.5635L78.4854 71.6066Z" fill="black"/>
<path d="M606.226 727.972C601.506 727.972 597.704 724.176 597.704 719.561C597.704 714.903 601.55 711.151 606.226 711.151C610.902 711.151 614.748 714.946 614.748 719.561C614.748 724.176 610.902 727.972 606.226 727.972ZM606.226 713.048C602.599 713.048 599.627 715.981 599.627 719.561C599.627 723.141 602.599 726.074 606.226 726.074C609.853 726.074 612.825 723.141 612.825 719.561C612.825 715.981 609.853 713.048 606.226 713.048Z" fill="black"/>
<path d="M756.211 187.413C751.492 187.413 747.689 183.617 747.689 179.002C747.689 174.344 751.535 170.592 756.211 170.592C760.931 170.592 764.733 174.387 764.733 179.002C764.733 183.66 760.931 187.413 756.211 187.413ZM756.211 172.49C752.584 172.49 749.612 175.423 749.612 179.002C749.612 182.582 752.584 185.515 756.211 185.515C759.839 185.515 762.81 182.582 762.81 179.002C762.81 175.423 759.839 172.49 756.211 172.49Z" fill="black"/>
<path d="M759.448 130.589C761.94 128.13 761.94 124.143 759.448 121.683C756.957 119.224 752.917 119.224 750.425 121.684C747.933 124.143 747.933 128.13 750.425 130.589C752.917 133.048 756.957 133.048 759.448 130.589Z" fill="black"/>
</svg>
